<svg xmlns="http://www.w3.org/2000/svg" xmlns:xlink="http://www.w3.org/1999/xlink" width="100" zoomAndPan="magnify" viewBox="0 0 75 112.499997" height="150" preserveAspectRatio="xMidYMid meet" version="1.0"><defs><clipPath id="cce224a849"><path d="M 11 16 L 55 16 L 55 76.691406 L 11 76.691406 Z M 11 16 " clip-rule="nonzero"/></clipPath><clipPath id="37ad35f5c9"><path d="M 51 14.71875 L 57 14.71875 L 57 20 L 51 20 Z M 51 14.71875 " clip-rule="nonzero"/></clipPath><clipPath id="ae36fb37fc"><path d="M 6.976562 66 L 14 66 L 14 73 L 6.976562 73 Z M 6.976562 66 " clip-rule="nonzero"/></clipPath><clipPath id="7c1c67ae97"><path d="M 62 22 L 68.207031 22 L 68.207031 29 L 62 29 Z M 62 22 " clip-rule="nonzero"/></clipPath></defs><path fill="#f77754" d="M 60.972656 72.964844 L 67.640625 32.339844 L 40.261719 27.851562 L 33.589844 68.476562 C 33.558594 68.679688 33.566406 68.882812 33.613281 69.085938 C 33.660156 69.285156 33.742188 69.46875 33.863281 69.636719 C 33.984375 69.804688 34.132812 69.945312 34.308594 70.054688 C 34.484375 70.164062 34.675781 70.234375 34.878906 70.265625 L 59.183594 74.253906 C 59.386719 74.285156 59.589844 74.277344 59.789062 74.230469 C 59.992188 74.183594 60.175781 74.101562 60.34375 73.980469 C 60.511719 73.859375 60.648438 73.710938 60.757812 73.535156 C 60.867188 73.359375 60.9375 73.171875 60.972656 72.964844 Z M 60.972656 72.964844 " fill-opacity="1" fill-rule="nonzero"/><path fill="#ea6142" d="M 33.589844 68.476562 C 33.558594 68.679688 33.566406 68.882812 33.613281 69.082031 C 33.660156 69.285156 33.742188 69.46875 33.863281 69.636719 C 33.984375 69.804688 34.132812 69.945312 34.308594 70.050781 C 34.484375 70.160156 34.675781 70.234375 34.878906 70.265625 L 55.464844 73.640625 C 55.726562 73.417969 55.921875 73.148438 56.046875 72.828125 C 56.171875 72.507812 56.214844 72.175781 56.167969 71.835938 L 50.777344 29.578125 L 40.257812 27.851562 Z M 33.589844 68.476562 " fill-opacity="1" fill-rule="nonzero"/><path fill="#ea6142" d="M 56.199219 44.152344 C 56.199219 44.421875 56.175781 44.691406 56.121094 44.957031 C 56.070312 45.222656 55.992188 45.480469 55.886719 45.730469 C 55.78125 45.980469 55.65625 46.21875 55.503906 46.441406 C 55.355469 46.667969 55.183594 46.875 54.992188 47.066406 C 54.800781 47.257812 54.59375 47.429688 54.367188 47.582031 C 54.140625 47.730469 53.90625 47.859375 53.65625 47.960938 C 53.402344 48.066406 53.144531 48.144531 52.878906 48.195312 C 52.613281 48.25 52.347656 48.273438 52.074219 48.273438 C 51.804688 48.273438 51.535156 48.25 51.269531 48.195312 C 51.003906 48.144531 50.746094 48.066406 50.496094 47.960938 C 50.246094 47.859375 50.007812 47.730469 49.785156 47.582031 C 49.558594 47.429688 49.351562 47.257812 49.160156 47.066406 C 48.96875 46.875 48.796875 46.667969 48.644531 46.441406 C 48.496094 46.21875 48.367188 45.980469 48.265625 45.730469 C 48.160156 45.480469 48.082031 45.222656 48.03125 44.957031 C 47.976562 44.691406 47.949219 44.421875 47.949219 44.152344 C 47.949219 43.882812 47.976562 43.613281 48.03125 43.347656 C 48.082031 43.082031 48.160156 42.824219 48.265625 42.574219 C 48.367188 42.324219 48.496094 42.085938 48.644531 41.863281 C 48.796875 41.636719 48.96875 41.429688 49.160156 41.238281 C 49.351562 41.046875 49.558594 40.875 49.785156 40.722656 C 50.007812 40.574219 50.246094 40.445312 50.496094 40.34375 C 50.746094 40.238281 51.003906 40.160156 51.269531 40.109375 C 51.535156 40.054688 51.804688 40.03125 52.074219 40.03125 C 52.347656 40.03125 52.613281 40.054688 52.878906 40.109375 C 53.144531 40.160156 53.402344 40.238281 53.65625 40.34375 C 53.90625 40.445312 54.140625 40.574219 54.367188 40.722656 C 54.59375 40.875 54.800781 41.046875 54.992188 41.238281 C 55.183594 41.429688 55.355469 41.636719 55.503906 41.863281 C 55.65625 42.085938 55.78125 42.324219 55.886719 42.574219 C 55.992188 42.824219 56.070312 43.082031 56.121094 43.347656 C 56.175781 43.613281 56.199219 43.882812 56.199219 44.152344 Z M 56.199219 44.152344 " fill-opacity="1" fill-rule="nonzero"/><path fill="#fcbe00" d="M 55.238281 70.851562 L 39.699219 68.304688 C 39.519531 68.273438 39.378906 68.1875 39.273438 68.039062 C 39.167969 67.890625 39.128906 67.726562 39.15625 67.546875 C 39.199219 67.289062 39.191406 67.035156 39.132812 66.78125 C 39.074219 66.527344 38.96875 66.292969 38.816406 66.082031 C 38.664062 65.867188 38.476562 65.695312 38.253906 65.554688 C 38.03125 65.417969 37.792969 65.328125 37.535156 65.285156 C 37.355469 65.257812 37.210938 65.167969 37.105469 65.019531 C 37 64.871094 36.964844 64.710938 36.992188 64.53125 L 42.082031 33.53125 C 42.113281 33.355469 42.203125 33.214844 42.347656 33.109375 C 42.496094 33.007812 42.65625 32.96875 42.835938 32.996094 C 43.011719 33.027344 43.152344 33.113281 43.257812 33.261719 C 43.363281 33.40625 43.402344 33.566406 43.375 33.746094 L 38.382812 64.15625 C 38.996094 64.390625 39.492188 64.777344 39.878906 65.308594 C 40.261719 65.84375 40.464844 66.4375 40.492188 67.09375 L 54.867188 69.453125 C 55.101562 68.839844 55.488281 68.339844 56.019531 67.957031 C 56.554688 67.574219 57.148438 67.371094 57.804688 67.34375 L 62.800781 36.925781 C 62.832031 36.75 62.921875 36.609375 63.066406 36.503906 C 63.214844 36.402344 63.375 36.363281 63.554688 36.390625 C 63.730469 36.421875 63.875 36.507812 63.980469 36.65625 C 64.085938 36.800781 64.125 36.960938 64.097656 37.140625 L 59.007812 68.148438 C 58.980469 68.328125 58.890625 68.46875 58.742188 68.574219 C 58.59375 68.679688 58.429688 68.71875 58.25 68.6875 C 57.992188 68.644531 57.738281 68.652344 57.484375 68.714844 C 57.230469 68.773438 56.996094 68.878906 56.785156 69.03125 C 56.570312 69.183594 56.398438 69.371094 56.261719 69.59375 C 56.121094 69.8125 56.03125 70.054688 55.988281 70.3125 C 55.960938 70.488281 55.871094 70.632812 55.726562 70.738281 C 55.578125 70.84375 55.417969 70.878906 55.238281 70.851562 Z M 55.238281 70.851562 " fill-opacity="1" fill-rule="nonzero"/><path fill="#f2a700" d="M 54.871094 69.460938 L 40.496094 67.105469 C 40.46875 66.449219 40.261719 65.851562 39.878906 65.320312 C 39.496094 64.785156 39 64.402344 38.386719 64.167969 L 43.382812 33.753906 C 43.410156 33.574219 43.371094 33.414062 43.265625 33.269531 C 43.160156 33.125 43.015625 33.035156 42.839844 33.007812 C 42.660156 32.976562 42.5 33.015625 42.351562 33.121094 C 42.207031 33.222656 42.117188 33.363281 42.085938 33.542969 L 36.992188 64.535156 C 36.964844 64.714844 37 64.878906 37.105469 65.027344 C 37.210938 65.175781 37.355469 65.261719 37.535156 65.292969 C 37.792969 65.335938 38.03125 65.425781 38.253906 65.5625 C 38.476562 65.699219 38.664062 65.875 38.816406 66.085938 C 38.96875 66.296875 39.074219 66.53125 39.132812 66.785156 C 39.191406 67.039062 39.199219 67.296875 39.15625 67.554688 C 39.128906 67.730469 39.167969 67.894531 39.273438 68.042969 C 39.378906 68.191406 39.519531 68.28125 39.699219 68.308594 L 55.238281 70.859375 C 55.410156 70.886719 55.5625 70.851562 55.707031 70.753906 C 55.847656 70.660156 55.9375 70.527344 55.976562 70.359375 L 55.707031 68.238281 C 55.332031 68.578125 55.054688 68.988281 54.871094 69.460938 Z M 54.871094 69.460938 " fill-opacity="1" fill-rule="nonzero"/><path fill="#ffed9f" d="M 54.871094 69.460938 L 40.566406 67.117188 C 40.570312 67.167969 40.582031 67.21875 40.582031 67.269531 L 54.960938 69.628906 C 55.195312 69.015625 55.582031 68.515625 56.113281 68.132812 C 56.648438 67.75 57.242188 67.546875 57.898438 67.519531 L 62.894531 37.101562 C 62.9375 36.820312 63.097656 36.644531 63.375 36.570312 C 63.648438 36.496094 63.875 36.574219 64.050781 36.800781 C 63.964844 36.570312 63.800781 36.433594 63.558594 36.390625 C 63.378906 36.363281 63.214844 36.398438 63.066406 36.503906 C 62.917969 36.609375 62.832031 36.753906 62.800781 36.933594 L 57.804688 67.347656 C 57.148438 67.375 56.554688 67.582031 56.019531 67.964844 C 55.488281 68.347656 55.105469 68.847656 54.871094 69.460938 Z M 54.871094 69.460938 " fill-opacity="1" fill-rule="nonzero"/><path fill="#ffed9f" d="M 38.472656 64.332031 C 39.210938 64.617188 39.769531 65.101562 40.15625 65.789062 C 39.796875 65.058594 39.242188 64.535156 38.492188 64.21875 Z M 38.472656 64.332031 " fill-opacity="1" fill-rule="nonzero"/><path fill="#ffed9f" d="M 39.25 67.714844 C 39.320312 67.261719 39.242188 66.839844 39.015625 66.441406 C 39.171875 66.796875 39.222656 67.164062 39.15625 67.550781 C 39.128906 67.742188 39.175781 67.910156 39.296875 68.0625 C 39.25 67.949219 39.230469 67.835938 39.25 67.714844 Z M 39.25 67.714844 " fill-opacity="1" fill-rule="nonzero"/><path fill="#ffed9f" d="M 37.082031 64.703125 L 42.171875 33.707031 C 42.210938 33.421875 42.371094 33.246094 42.648438 33.171875 C 42.925781 33.101562 43.152344 33.175781 43.328125 33.402344 C 43.238281 33.171875 43.074219 33.039062 42.835938 32.996094 C 42.65625 32.964844 42.492188 33 42.34375 33.105469 C 42.195312 33.214844 42.105469 33.355469 42.078125 33.535156 L 36.992188 64.535156 C 36.960938 64.726562 37.007812 64.898438 37.132812 65.046875 C 37.082031 64.9375 37.066406 64.824219 37.082031 64.703125 Z M 37.082031 64.703125 " fill-opacity="1" fill-rule="nonzero"/><path fill="#ea6142" d="M 67.640625 32.34375 C 67.519531 33.070312 67.34375 33.78125 67.113281 34.480469 C 66.878906 35.179688 66.59375 35.855469 66.25 36.511719 C 65.910156 37.164062 65.519531 37.785156 65.078125 38.378906 C 64.640625 38.96875 64.15625 39.519531 63.628906 40.035156 C 63.101562 40.550781 62.535156 41.019531 61.929688 41.441406 C 61.328125 41.867188 60.695312 42.242188 60.035156 42.5625 C 59.371094 42.886719 58.6875 43.15625 57.980469 43.371094 C 57.277344 43.585938 56.558594 43.742188 55.828125 43.839844 L 47.777344 42.519531 C 47.117188 42.191406 46.488281 41.8125 45.886719 41.386719 C 45.289062 40.957031 44.726562 40.484375 44.203125 39.964844 C 43.675781 39.449219 43.195312 38.890625 42.761719 38.296875 C 42.324219 37.703125 41.941406 37.078125 41.605469 36.421875 C 41.269531 35.765625 40.984375 35.089844 40.757812 34.386719 C 40.53125 33.6875 40.359375 32.972656 40.246094 32.246094 C 40.128906 31.515625 40.074219 30.785156 40.078125 30.046875 C 40.078125 29.3125 40.140625 28.578125 40.261719 27.851562 Z M 67.640625 32.34375 " fill-opacity="1" fill-rule="nonzero"/><path fill="#e04b32" d="M 47.777344 42.519531 L 52.527344 43.300781 L 50.777344 29.578125 L 40.257812 27.851562 C 40.140625 28.578125 40.078125 29.3125 40.074219 30.046875 C 40.074219 30.785156 40.128906 31.515625 40.242188 32.246094 C 40.359375 32.972656 40.527344 33.6875 40.757812 34.386719 C 40.984375 35.089844 41.265625 35.765625 41.601562 36.421875 C 41.9375 37.078125 42.324219 37.703125 42.761719 38.296875 C 43.195312 38.890625 43.675781 39.449219 44.199219 39.964844 C 44.726562 40.484375 45.289062 40.957031 45.886719 41.386719 C 46.488281 41.8125 47.117188 42.191406 47.777344 42.519531 Z M 47.777344 42.519531 " fill-opacity="1" fill-rule="nonzero"/><path fill="#e04b32" d="M 52.765625 40.25 C 52.320312 40.179688 51.871094 40.179688 51.425781 40.253906 C 50.980469 40.328125 50.554688 40.472656 50.15625 40.683594 C 49.757812 40.898438 49.402344 41.167969 49.09375 41.5 C 48.785156 41.828125 48.535156 42.199219 48.347656 42.613281 L 55.828125 43.839844 C 55.949219 43.824219 56.066406 43.796875 56.1875 43.777344 C 56.128906 43.339844 56.003906 42.921875 55.808594 42.523438 C 55.617188 42.125 55.367188 41.765625 55.058594 41.449219 C 54.75 41.132812 54.402344 40.871094 54.007812 40.667969 C 53.617188 40.460938 53.203125 40.324219 52.765625 40.25 Z M 52.765625 40.25 " fill-opacity="1" fill-rule="nonzero"/><path fill="#ffd92e" d="M 55.828125 43.78125 C 55.828125 44.050781 55.800781 44.320312 55.75 44.585938 C 55.695312 44.851562 55.617188 45.109375 55.515625 45.359375 C 55.410156 45.609375 55.285156 45.847656 55.132812 46.070312 C 54.984375 46.296875 54.8125 46.503906 54.621094 46.695312 C 54.429688 46.886719 54.222656 47.058594 53.996094 47.210938 C 53.769531 47.359375 53.53125 47.488281 53.28125 47.589844 C 53.03125 47.695312 52.773438 47.773438 52.507812 47.824219 C 52.242188 47.878906 51.976562 47.902344 51.703125 47.902344 C 51.433594 47.902344 51.164062 47.878906 50.898438 47.824219 C 50.632812 47.773438 50.375 47.695312 50.125 47.589844 C 49.875 47.488281 49.636719 47.359375 49.414062 47.210938 C 49.1875 47.058594 48.980469 46.886719 48.789062 46.695312 C 48.597656 46.503906 48.425781 46.296875 48.273438 46.070312 C 48.125 45.847656 47.996094 45.609375 47.894531 45.359375 C 47.789062 45.109375 47.710938 44.851562 47.660156 44.585938 C 47.605469 44.320312 47.578125 44.050781 47.578125 43.78125 C 47.578125 43.511719 47.605469 43.242188 47.660156 42.976562 C 47.710938 42.710938 47.789062 42.453125 47.894531 42.203125 C 47.996094 41.953125 48.125 41.714844 48.273438 41.492188 C 48.425781 41.265625 48.597656 41.058594 48.789062 40.867188 C 48.980469 40.675781 49.1875 40.503906 49.414062 40.351562 C 49.636719 40.203125 49.875 40.074219 50.125 39.972656 C 50.375 39.867188 50.632812 39.789062 50.898438 39.738281 C 51.164062 39.683594 51.433594 39.65625 51.703125 39.65625 C 51.976562 39.65625 52.242188 39.683594 52.507812 39.738281 C 52.773438 39.789062 53.03125 39.867188 53.28125 39.972656 C 53.53125 40.074219 53.769531 40.203125 53.996094 40.351562 C 54.222656 40.503906 54.429688 40.675781 54.621094 40.867188 C 54.8125 41.058594 54.984375 41.265625 55.132812 41.492188 C 55.285156 41.714844 55.410156 41.953125 55.515625 42.203125 C 55.617188 42.453125 55.695312 42.710938 55.75 42.976562 C 55.800781 43.242188 55.828125 43.511719 55.828125 43.78125 Z M 55.828125 43.78125 " fill-opacity="1" fill-rule="nonzero"/><path fill="#f2a700" d="M 52.066406 39.679688 C 51.757812 39.652344 51.453125 39.660156 51.148438 39.699219 C 50.84375 39.742188 50.546875 39.816406 50.257812 39.925781 C 49.96875 40.03125 49.695312 40.171875 49.4375 40.339844 C 49.179688 40.507812 48.945312 40.703125 48.734375 40.925781 C 48.519531 41.148438 48.332031 41.390625 48.171875 41.65625 C 48.015625 41.917969 47.886719 42.195312 47.789062 42.488281 C 47.691406 42.78125 47.628906 43.078125 47.601562 43.386719 C 47.570312 43.691406 47.574219 44 47.613281 44.304688 C 47.652344 44.609375 47.726562 44.90625 47.832031 45.195312 C 47.9375 45.484375 48.074219 45.757812 48.238281 46.019531 C 48.40625 46.277344 48.601562 46.511719 48.820312 46.730469 C 49.039062 46.945312 49.28125 47.132812 49.542969 47.292969 C 49.808594 47.453125 50.082031 47.585938 50.375 47.683594 C 50.667969 47.785156 50.964844 47.847656 51.273438 47.882812 C 51.578125 47.914062 51.886719 47.910156 52.191406 47.875 C 52.496094 47.839844 52.792969 47.769531 53.085938 47.664062 Z M 52.066406 39.679688 " fill-opacity="1" fill-rule="nonzero"/><path fill="#ffed9f" d="M 54.371094 43.78125 C 54.371094 44.132812 54.304688 44.472656 54.167969 44.800781 C 54.03125 45.128906 53.839844 45.414062 53.589844 45.664062 C 53.339844 45.914062 53.050781 46.109375 52.722656 46.242188 C 52.398438 46.378906 52.058594 46.445312 51.703125 46.445312 C 51.351562 46.445312 51.011719 46.378906 50.683594 46.242188 C 50.355469 46.109375 50.070312 45.914062 49.820312 45.664062 C 49.570312 45.414062 49.375 45.128906 49.242188 44.800781 C 49.105469 44.472656 49.039062 44.132812 49.039062 43.78125 C 49.039062 43.425781 49.105469 43.085938 49.242188 42.761719 C 49.375 42.433594 49.570312 42.144531 49.820312 41.894531 C 50.070312 41.644531 50.355469 41.453125 50.683594 41.320312 C 51.011719 41.183594 51.351562 41.117188 51.703125 41.117188 C 52.058594 41.117188 52.398438 41.183594 52.722656 41.320312 C 53.050781 41.453125 53.339844 41.644531 53.589844 41.894531 C 53.839844 42.144531 54.03125 42.433594 54.167969 42.761719 C 54.304688 43.085938 54.371094 43.425781 54.371094 43.78125 Z M 54.371094 43.78125 " fill-opacity="1" fill-rule="nonzero"/><path fill="#ffd92e" d="M 52.890625 46.160156 L 52.257812 41.183594 C 52.214844 41.175781 52.179688 41.15625 52.136719 41.152344 C 51.929688 41.117188 51.71875 41.105469 51.507812 41.121094 C 51.296875 41.136719 51.09375 41.175781 50.890625 41.238281 C 50.691406 41.300781 50.5 41.386719 50.320312 41.496094 C 50.140625 41.601562 49.972656 41.730469 49.824219 41.878906 C 49.671875 42.027344 49.542969 42.191406 49.429688 42.367188 C 49.320312 42.546875 49.230469 42.734375 49.164062 42.9375 C 49.097656 43.136719 49.054688 43.339844 49.035156 43.550781 C 49.019531 43.761719 49.023438 43.96875 49.054688 44.175781 C 49.085938 44.386719 49.144531 44.585938 49.222656 44.78125 C 49.300781 44.976562 49.402344 45.160156 49.523438 45.332031 C 49.648438 45.503906 49.789062 45.65625 49.949219 45.796875 C 50.109375 45.933594 50.28125 46.050781 50.46875 46.148438 C 50.65625 46.242188 50.851562 46.316406 51.054688 46.367188 C 51.261719 46.417969 51.46875 46.445312 51.679688 46.445312 C 51.890625 46.445312 52.097656 46.421875 52.300781 46.375 C 52.507812 46.324219 52.703125 46.253906 52.890625 46.160156 Z M 52.890625 46.160156 " fill-opacity="1" fill-rule="nonzero"/><path fill="#ffd92e" d="M 53.925781 43.78125 C 53.925781 44.074219 53.871094 44.359375 53.757812 44.632812 C 53.644531 44.902344 53.484375 45.144531 53.277344 45.351562 C 53.066406 45.558594 52.828125 45.71875 52.554688 45.832031 C 52.28125 45.945312 52 46.003906 51.703125 46.003906 C 51.410156 46.003906 51.125 45.945312 50.855469 45.832031 C 50.582031 45.71875 50.339844 45.558594 50.132812 45.351562 C 49.925781 45.144531 49.765625 44.902344 49.652344 44.632812 C 49.539062 44.359375 49.480469 44.074219 49.480469 43.78125 C 49.480469 43.488281 49.539062 43.203125 49.652344 42.929688 C 49.765625 42.660156 49.925781 42.417969 50.132812 42.210938 C 50.339844 42.003906 50.582031 41.839844 50.855469 41.730469 C 51.125 41.617188 51.410156 41.558594 51.703125 41.558594 C 52 41.558594 52.28125 41.617188 52.554688 41.730469 C 52.828125 41.839844 53.066406 42.003906 53.277344 42.210938 C 53.484375 42.417969 53.644531 42.660156 53.757812 42.929688 C 53.871094 43.203125 53.925781 43.488281 53.925781 43.78125 Z M 53.925781 43.78125 " fill-opacity="1" fill-rule="nonzero"/><path fill="#f2a700" d="M 52.832031 45.683594 L 52.320312 41.65625 C 52.140625 41.605469 51.960938 41.574219 51.777344 41.566406 C 51.59375 41.5625 51.410156 41.574219 51.230469 41.613281 C 51.050781 41.652344 50.878906 41.710938 50.710938 41.792969 C 50.546875 41.875 50.394531 41.976562 50.253906 42.09375 C 50.113281 42.214844 49.988281 42.347656 49.882812 42.5 C 49.773438 42.648438 49.6875 42.808594 49.621094 42.980469 C 49.554688 43.152344 49.511719 43.332031 49.488281 43.515625 C 49.464844 43.699219 49.464844 43.878906 49.488281 44.0625 C 49.511719 44.246094 49.558594 44.421875 49.625 44.59375 C 49.695312 44.765625 49.78125 44.925781 49.890625 45.078125 C 49.996094 45.226562 50.121094 45.359375 50.261719 45.480469 C 50.402344 45.597656 50.554688 45.695312 50.722656 45.777344 C 50.886719 45.859375 51.0625 45.917969 51.242188 45.953125 C 51.421875 45.992188 51.605469 46.003906 51.789062 45.996094 C 51.972656 45.988281 52.152344 45.957031 52.332031 45.90625 C 52.507812 45.851562 52.675781 45.777344 52.832031 45.683594 Z M 52.832031 45.683594 " fill-opacity="1" fill-rule="nonzero"/><g clip-path="url(#cce224a849)"><path fill="#f77754" d="M 54.515625 70.183594 L 47.71875 16.859375 L 11.777344 21.4375 L 18.574219 74.761719 C 18.609375 75.03125 18.695312 75.28125 18.828125 75.515625 C 18.960938 75.75 19.136719 75.949219 19.347656 76.113281 C 19.5625 76.28125 19.800781 76.398438 20.058594 76.46875 C 20.320312 76.539062 20.585938 76.558594 20.851562 76.523438 L 52.753906 72.460938 C 53.023438 72.425781 53.273438 72.34375 53.507812 72.207031 C 53.742188 72.074219 53.941406 71.902344 54.105469 71.6875 C 54.269531 71.472656 54.390625 71.238281 54.460938 70.976562 C 54.53125 70.714844 54.550781 70.453125 54.515625 70.183594 Z M 54.515625 70.183594 " fill-opacity="1" fill-rule="nonzero"/></g><path fill="#ea6142" d="M 38.070312 36.957031 C 38.027344 36.625 37.957031 36.296875 37.851562 35.976562 C 37.746094 35.652344 37.613281 35.34375 37.453125 35.050781 C 37.289062 34.753906 37.101562 34.476562 36.886719 34.214844 C 36.671875 33.953125 36.433594 33.71875 36.175781 33.5 C 35.917969 33.285156 35.640625 33.09375 35.34375 32.929688 C 35.050781 32.765625 34.742188 32.632812 34.421875 32.527344 C 34.101562 32.421875 33.773438 32.34375 33.441406 32.300781 C 33.105469 32.257812 32.769531 32.242188 32.433594 32.261719 C 32.097656 32.28125 31.761719 32.328125 31.4375 32.410156 C 31.109375 32.492188 30.792969 32.601562 30.484375 32.742188 C 30.175781 32.882812 29.886719 33.050781 29.613281 33.246094 C 29.335938 33.441406 29.082031 33.660156 28.847656 33.902344 C 28.613281 34.148438 28.40625 34.410156 28.21875 34.691406 C 28.035156 34.976562 27.878906 35.273438 27.75 35.582031 C 27.621094 35.894531 27.523438 36.214844 27.453125 36.546875 C 27.386719 36.878906 27.347656 37.210938 27.34375 37.546875 C 27.339844 37.886719 27.363281 38.21875 27.421875 38.550781 C 27.480469 38.886719 27.566406 39.210938 27.683594 39.523438 C 27.804688 39.839844 27.949219 40.144531 28.125 40.429688 C 28.300781 40.71875 28.5 40.988281 28.726562 41.238281 C 28.953125 41.492188 29.199219 41.71875 29.46875 41.921875 C 29.738281 42.125 30.023438 42.304688 30.324219 42.453125 C 30.625 42.605469 30.941406 42.726562 31.265625 42.816406 C 31.589844 42.910156 31.917969 42.96875 32.257812 43 L 32.257812 46.53125 C 32.066406 46.601562 31.890625 46.691406 31.726562 46.804688 C 31.558594 46.917969 31.410156 47.046875 31.277344 47.199219 C 31.144531 47.347656 31.03125 47.511719 30.9375 47.6875 C 30.847656 47.867188 30.777344 48.050781 30.730469 48.246094 C 30.683594 48.441406 30.660156 48.636719 30.664062 48.839844 C 30.664062 49.039062 30.691406 49.234375 30.742188 49.429688 C 30.792969 49.621094 30.867188 49.808594 30.964844 49.984375 C 31.0625 50.15625 31.179688 50.320312 31.3125 50.464844 L 31.242188 50.464844 C 30.527344 51.050781 30.171875 51.808594 30.171875 52.730469 L 30.171875 58.460938 C 30.171875 58.613281 30.199219 58.753906 30.257812 58.894531 C 30.3125 59.03125 30.394531 59.152344 30.5 59.257812 C 30.605469 59.363281 30.726562 59.445312 30.863281 59.5 C 31 59.558594 31.144531 59.585938 31.292969 59.585938 L 34.925781 59.585938 C 35.074219 59.585938 35.21875 59.558594 35.355469 59.5 C 35.492188 59.445312 35.613281 59.363281 35.71875 59.257812 C 35.824219 59.152344 35.90625 59.03125 35.960938 58.894531 C 36.019531 58.757812 36.046875 58.613281 36.046875 58.464844 L 36.046875 52.730469 C 36.046875 52.285156 35.953125 51.859375 35.757812 51.457031 C 35.5625 51.054688 35.292969 50.714844 34.945312 50.4375 L 34.933594 50.4375 C 35.066406 50.289062 35.179688 50.128906 35.273438 49.953125 C 35.367188 49.777344 35.4375 49.59375 35.484375 49.402344 C 35.53125 49.207031 35.558594 49.011719 35.558594 48.816406 C 35.558594 48.617188 35.535156 48.421875 35.488281 48.226562 C 35.4375 48.035156 35.367188 47.851562 35.277344 47.675781 C 35.183594 47.5 35.070312 47.339844 34.9375 47.191406 C 34.804688 47.042969 34.65625 46.914062 34.492188 46.800781 C 34.328125 46.691406 34.152344 46.601562 33.96875 46.53125 L 33.96875 42.878906 C 34.613281 42.726562 35.214844 42.460938 35.761719 42.085938 C 36.3125 41.710938 36.777344 41.25 37.15625 40.703125 C 37.535156 40.160156 37.804688 39.5625 37.960938 38.917969 C 38.117188 38.269531 38.15625 37.617188 38.070312 36.957031 Z M 38.070312 36.957031 " fill-opacity="1" fill-rule="nonzero"/><path fill="#ffd92e" d="M 34.25 49.910156 L 30.550781 49.9375 C 30.210938 50.214844 29.945312 50.554688 29.761719 50.953125 C 29.574219 51.351562 29.480469 51.769531 29.480469 52.207031 L 29.480469 57.9375 C 29.480469 58.085938 29.507812 58.230469 29.566406 58.367188 C 29.621094 58.503906 29.703125 58.625 29.808594 58.730469 C 29.914062 58.835938 30.035156 58.914062 30.171875 58.972656 C 30.308594 59.027344 30.453125 59.058594 30.601562 59.058594 L 34.234375 59.058594 C 34.382812 59.058594 34.527344 59.03125 34.664062 58.972656 C 34.804688 58.917969 34.925781 58.835938 35.03125 58.730469 C 35.136719 58.625 35.21875 58.503906 35.273438 58.363281 C 35.332031 58.226562 35.359375 58.082031 35.359375 57.933594 L 35.359375 52.203125 C 35.359375 51.757812 35.261719 51.332031 35.066406 50.929688 C 34.875 50.527344 34.601562 50.1875 34.25 49.910156 Z M 34.25 49.910156 " fill-opacity="1" fill-rule="nonzero"/><path fill="#fff3e9" d="M 32.417969 48.164062 C 32.179688 48.164062 31.980469 48.078125 31.8125 47.914062 C 31.644531 47.746094 31.5625 47.542969 31.5625 47.304688 L 31.5625 40.949219 C 31.5625 40.710938 31.644531 40.507812 31.8125 40.34375 C 31.980469 40.175781 32.179688 40.089844 32.417969 40.089844 C 32.65625 40.089844 32.855469 40.175781 33.023438 40.34375 C 33.191406 40.507812 33.273438 40.710938 33.273438 40.949219 L 33.273438 47.308594 C 33.273438 47.546875 33.191406 47.746094 33.023438 47.914062 C 32.855469 48.078125 32.652344 48.164062 32.417969 48.164062 Z M 32.417969 48.164062 " fill-opacity="1" fill-rule="nonzero"/><path fill="#fcbe00" d="M 46.554688 69.671875 L 26.15625 72.269531 C 25.921875 72.300781 25.710938 72.242188 25.523438 72.097656 C 25.335938 71.953125 25.226562 71.765625 25.195312 71.53125 C 25.152344 71.191406 25.046875 70.875 24.878906 70.578125 C 24.707031 70.285156 24.488281 70.03125 24.21875 69.824219 C 23.949219 69.617188 23.648438 69.464844 23.320312 69.375 C 22.992188 69.289062 22.660156 69.265625 22.320312 69.304688 C 22.085938 69.335938 21.875 69.277344 21.6875 69.132812 C 21.5 68.988281 21.394531 68.800781 21.363281 68.566406 L 16.175781 27.875 C 16.144531 27.640625 16.199219 27.425781 16.34375 27.234375 C 16.488281 27.046875 16.679688 26.9375 16.917969 26.90625 C 17.15625 26.875 17.367188 26.9375 17.554688 27.082031 C 17.742188 27.230469 17.851562 27.425781 17.875 27.660156 L 22.964844 67.585938 C 23.382812 67.617188 23.789062 67.710938 24.179688 67.859375 C 24.574219 68.011719 24.933594 68.214844 25.265625 68.472656 C 25.597656 68.730469 25.886719 69.027344 26.132812 69.371094 C 26.375 69.710938 26.566406 70.082031 26.703125 70.476562 L 45.570312 68.074219 C 45.605469 67.65625 45.695312 67.25 45.847656 66.859375 C 45.996094 66.464844 46.203125 66.105469 46.457031 65.773438 C 46.714844 65.441406 47.015625 65.152344 47.355469 64.910156 C 47.699219 64.664062 48.066406 64.476562 48.464844 64.339844 L 43.375 24.410156 C 43.34375 24.175781 43.402344 23.964844 43.546875 23.777344 C 43.691406 23.589844 43.878906 23.480469 44.113281 23.449219 C 44.351562 23.421875 44.5625 23.476562 44.746094 23.621094 C 44.933594 23.765625 45.042969 23.957031 45.074219 24.191406 L 50.261719 64.882812 C 50.292969 65.117188 50.234375 65.328125 50.089844 65.515625 C 49.945312 65.703125 49.753906 65.8125 49.519531 65.839844 C 49.179688 65.882812 48.863281 65.988281 48.570312 66.160156 C 48.273438 66.328125 48.019531 66.546875 47.8125 66.816406 C 47.605469 67.085938 47.453125 67.386719 47.363281 67.714844 C 47.277344 68.042969 47.253906 68.378906 47.292969 68.714844 C 47.324219 68.949219 47.269531 69.160156 47.121094 69.347656 C 46.976562 69.535156 46.789062 69.644531 46.554688 69.671875 Z M 46.554688 69.671875 " fill-opacity="1" fill-rule="nonzero"/><path fill="#ffed9f" d="M 45.570312 68.070312 L 26.800781 70.464844 C 26.828125 70.527344 26.859375 70.585938 26.878906 70.648438 L 45.746094 68.246094 C 45.78125 67.828125 45.871094 67.421875 46.023438 67.03125 C 46.171875 66.640625 46.375 66.277344 46.632812 65.945312 C 46.890625 65.613281 47.191406 65.328125 47.53125 65.082031 C 47.871094 64.839844 48.242188 64.648438 48.640625 64.511719 L 43.550781 24.585938 C 43.5 24.214844 43.632812 23.9375 43.953125 23.742188 C 44.269531 23.550781 44.582031 23.5625 44.886719 23.78125 C 44.691406 23.527344 44.433594 23.414062 44.117188 23.453125 C 43.878906 23.484375 43.691406 23.589844 43.546875 23.777344 C 43.402344 23.964844 43.34375 24.175781 43.375 24.410156 L 48.464844 64.335938 C 48.066406 64.472656 47.699219 64.664062 47.355469 64.90625 C 47.015625 65.152344 46.714844 65.4375 46.457031 65.769531 C 46.203125 66.101562 45.996094 66.464844 45.847656 66.855469 C 45.695312 67.246094 45.605469 67.652344 45.570312 68.070312 Z M 45.570312 68.070312 " fill-opacity="1" fill-rule="nonzero"/><path fill="#ffed9f" d="M 23.140625 67.757812 C 24.167969 67.839844 25.050781 68.238281 25.789062 68.953125 C 25.066406 68.171875 24.179688 67.722656 23.121094 67.605469 Z M 23.140625 67.757812 " fill-opacity="1" fill-rule="nonzero"/><path fill="#ffed9f" d="M 25.367188 71.707031 C 25.289062 71.109375 25.035156 70.605469 24.601562 70.191406 C 24.929688 70.578125 25.128906 71.023438 25.195312 71.527344 C 25.226562 71.777344 25.347656 71.976562 25.558594 72.117188 C 25.457031 71.996094 25.394531 71.859375 25.367188 71.707031 Z M 25.367188 71.707031 " fill-opacity="1" fill-rule="nonzero"/><path fill="#ffed9f" d="M 21.539062 68.742188 L 16.351562 28.050781 C 16.300781 27.683594 16.4375 27.402344 16.753906 27.210938 C 17.074219 27.015625 17.382812 27.03125 17.6875 27.246094 C 17.492188 26.992188 17.238281 26.882812 16.917969 26.917969 C 16.683594 26.949219 16.492188 27.054688 16.347656 27.242188 C 16.203125 27.429688 16.144531 27.640625 16.175781 27.875 L 21.363281 68.566406 C 21.398438 68.816406 21.519531 69.011719 21.726562 69.152344 C 21.625 69.035156 21.5625 68.894531 21.539062 68.742188 Z M 21.539062 68.742188 " fill-opacity="1" fill-rule="nonzero"/><path fill="#ea6142" d="M 47.71875 16.859375 C 47.839844 17.8125 47.882812 18.773438 47.851562 19.734375 C 47.820312 20.695312 47.714844 21.648438 47.53125 22.59375 C 47.347656 23.539062 47.09375 24.460938 46.761719 25.363281 C 46.429688 26.269531 46.03125 27.140625 45.5625 27.980469 C 45.09375 28.820312 44.558594 29.617188 43.964844 30.375 C 43.367188 31.128906 42.714844 31.832031 42.007812 32.484375 C 41.296875 33.132812 40.542969 33.726562 39.738281 34.257812 C 38.9375 34.785156 38.097656 35.25 37.21875 35.648438 L 26.65625 36.996094 C 25.707031 36.832031 24.777344 36.589844 23.867188 36.277344 C 22.957031 35.964844 22.078125 35.582031 21.226562 35.132812 C 20.378906 34.679688 19.570312 34.160156 18.800781 33.578125 C 18.035156 33 17.320312 32.359375 16.65625 31.664062 C 15.988281 30.96875 15.382812 30.222656 14.835938 29.433594 C 14.289062 28.640625 13.808594 27.808594 13.394531 26.941406 C 12.980469 26.074219 12.636719 25.175781 12.367188 24.253906 C 12.097656 23.332031 11.898438 22.390625 11.777344 21.4375 Z M 47.71875 16.859375 " fill-opacity="1" fill-rule="nonzero"/><path fill="#e04b32" d="M 32.046875 32.296875 C 31.460938 32.375 30.902344 32.539062 30.371094 32.800781 C 29.839844 33.058594 29.363281 33.394531 28.945312 33.8125 C 28.523438 34.226562 28.183594 34.699219 27.917969 35.230469 C 27.652344 35.757812 27.480469 36.3125 27.398438 36.898438 L 37.21875 35.648438 C 37.363281 35.582031 37.5 35.503906 37.644531 35.4375 C 37.40625 34.910156 37.09375 34.433594 36.703125 34.007812 C 36.3125 33.582031 35.867188 33.226562 35.363281 32.945312 C 34.859375 32.660156 34.324219 32.464844 33.757812 32.355469 C 33.191406 32.246094 32.621094 32.226562 32.046875 32.296875 Z M 32.046875 32.296875 " fill-opacity="1" fill-rule="nonzero"/><path fill="#fcbe00" d="M 34.867188 48.289062 C 34.867188 48.613281 34.804688 48.925781 34.679688 49.226562 C 34.554688 49.523438 34.378906 49.789062 34.148438 50.019531 C 33.917969 50.25 33.65625 50.425781 33.355469 50.550781 C 33.054688 50.671875 32.742188 50.734375 32.417969 50.734375 C 32.09375 50.734375 31.78125 50.671875 31.480469 50.550781 C 31.179688 50.425781 30.917969 50.25 30.6875 50.019531 C 30.457031 49.789062 30.28125 49.523438 30.15625 49.226562 C 30.03125 48.925781 29.96875 48.613281 29.96875 48.289062 C 29.96875 47.964844 30.03125 47.652344 30.15625 47.351562 C 30.28125 47.050781 30.457031 46.789062 30.6875 46.558594 C 30.917969 46.328125 31.179688 46.152344 31.480469 46.027344 C 31.78125 45.902344 32.09375 45.839844 32.417969 45.839844 C 32.742188 45.839844 33.054688 45.902344 33.355469 46.027344 C 33.65625 46.152344 33.917969 46.328125 34.148438 46.558594 C 34.378906 46.789062 34.554688 47.050781 34.679688 47.351562 C 34.804688 47.652344 34.867188 47.964844 34.867188 48.289062 Z M 34.867188 48.289062 " fill-opacity="1" fill-rule="nonzero"/><path fill="#ffd92e" d="M 32.15625 46.910156 C 32.34375 47.015625 32.453125 47.191406 32.488281 47.433594 C 32.523438 47.671875 32.472656 47.910156 32.339844 48.144531 C 32.203125 48.375 32.023438 48.539062 31.796875 48.628906 C 31.570312 48.714844 31.367188 48.707031 31.179688 48.601562 C 30.996094 48.492188 30.882812 48.320312 30.847656 48.078125 C 30.8125 47.839844 30.863281 47.601562 30.996094 47.367188 C 31.132812 47.136719 31.3125 46.972656 31.539062 46.882812 C 31.765625 46.792969 31.972656 46.804688 32.15625 46.910156 Z M 32.15625 46.910156 " fill-opacity="1" fill-rule="nonzero"/><path fill="#ffd92e" d="M 37.421875 37.109375 C 37.421875 37.464844 37.386719 37.8125 37.320312 38.160156 C 37.25 38.507812 37.148438 38.84375 37.011719 39.171875 C 36.878906 39.496094 36.710938 39.808594 36.515625 40.101562 C 36.320312 40.394531 36.09375 40.667969 35.84375 40.917969 C 35.59375 41.167969 35.324219 41.390625 35.027344 41.585938 C 34.734375 41.78125 34.425781 41.949219 34.097656 42.085938 C 33.769531 42.21875 33.433594 42.320312 33.085938 42.390625 C 32.742188 42.460938 32.390625 42.492188 32.039062 42.492188 C 31.683594 42.492188 31.332031 42.460938 30.988281 42.390625 C 30.640625 42.320312 30.304688 42.21875 29.976562 42.085938 C 29.648438 41.949219 29.339844 41.78125 29.046875 41.585938 C 28.75 41.390625 28.480469 41.167969 28.230469 40.917969 C 27.980469 40.667969 27.753906 40.394531 27.558594 40.101562 C 27.363281 39.808594 27.195312 39.496094 27.0625 39.171875 C 26.925781 38.84375 26.824219 38.507812 26.753906 38.160156 C 26.6875 37.8125 26.652344 37.464844 26.652344 37.109375 C 26.652344 36.757812 26.6875 36.40625 26.753906 36.058594 C 26.824219 35.714844 26.925781 35.378906 27.0625 35.050781 C 27.195312 34.722656 27.363281 34.414062 27.558594 34.121094 C 27.753906 33.824219 27.980469 33.554688 28.230469 33.304688 C 28.480469 33.054688 28.75 32.832031 29.046875 32.632812 C 29.339844 32.4375 29.648438 32.273438 29.976562 32.136719 C 30.304688 32 30.640625 31.898438 30.988281 31.832031 C 31.332031 31.761719 31.683594 31.726562 32.039062 31.726562 C 32.390625 31.726562 32.742188 31.761719 33.085938 31.832031 C 33.433594 31.898438 33.769531 32 34.097656 32.136719 C 34.425781 32.273438 34.734375 32.4375 35.027344 32.632812 C 35.324219 32.832031 35.59375 33.054688 35.84375 33.304688 C 36.09375 33.554688 36.320312 33.824219 36.515625 34.121094 C 36.710938 34.414062 36.878906 34.722656 37.011719 35.050781 C 37.148438 35.378906 37.25 35.714844 37.320312 36.058594 C 37.386719 36.40625 37.421875 36.757812 37.421875 37.109375 Z M 37.421875 37.109375 " fill-opacity="1" fill-rule="nonzero"/><path fill="#ffed9f" d="M 35.519531 37.109375 C 35.519531 37.570312 35.429688 38.015625 35.253906 38.441406 C 35.078125 38.867188 34.824219 39.246094 34.5 39.570312 C 34.171875 39.898438 33.796875 40.148438 33.371094 40.324219 C 32.941406 40.503906 32.5 40.589844 32.039062 40.589844 C 31.574219 40.589844 31.132812 40.503906 30.703125 40.324219 C 30.277344 40.148438 29.902344 39.898438 29.574219 39.570312 C 29.25 39.246094 28.996094 38.867188 28.820312 38.441406 C 28.644531 38.015625 28.554688 37.570312 28.554688 37.109375 C 28.554688 36.648438 28.644531 36.207031 28.820312 35.777344 C 28.996094 35.351562 29.25 34.976562 29.574219 34.648438 C 29.902344 34.324219 30.277344 34.070312 30.703125 33.894531 C 31.132812 33.71875 31.574219 33.628906 32.039062 33.628906 C 32.5 33.628906 32.941406 33.71875 33.371094 33.894531 C 33.796875 34.070312 34.171875 34.324219 34.5 34.648438 C 34.824219 34.976562 35.078125 35.351562 35.253906 35.777344 C 35.429688 36.207031 35.519531 36.648438 35.519531 37.109375 Z M 35.519531 37.109375 " fill-opacity="1" fill-rule="nonzero"/><path fill="#ffd92e" d="M 34.9375 37.109375 C 34.9375 37.496094 34.863281 37.867188 34.71875 38.21875 C 34.570312 38.574219 34.359375 38.890625 34.089844 39.160156 C 33.816406 39.433594 33.503906 39.644531 33.148438 39.789062 C 32.792969 39.9375 32.421875 40.011719 32.039062 40.011719 C 31.652344 40.011719 31.28125 39.9375 30.925781 39.789062 C 30.570312 39.644531 30.257812 39.433594 29.984375 39.160156 C 29.714844 38.890625 29.503906 38.574219 29.355469 38.21875 C 29.210938 37.867188 29.136719 37.496094 29.136719 37.109375 C 29.136719 36.726562 29.210938 36.355469 29.355469 36 C 29.503906 35.644531 29.714844 35.332031 29.984375 35.058594 C 30.257812 34.789062 30.570312 34.578125 30.925781 34.429688 C 31.28125 34.285156 31.652344 34.210938 32.039062 34.210938 C 32.421875 34.210938 32.792969 34.285156 33.148438 34.429688 C 33.503906 34.578125 33.816406 34.789062 34.089844 35.058594 C 34.359375 35.332031 34.570312 35.644531 34.71875 36 C 34.863281 36.355469 34.9375 36.726562 34.9375 37.109375 Z M 34.9375 37.109375 " fill-opacity="1" fill-rule="nonzero"/><path fill="#ffed9f" d="M 31.398438 57.828125 C 31.128906 57.828125 30.898438 57.734375 30.707031 57.542969 C 30.519531 57.351562 30.421875 57.121094 30.421875 56.851562 L 30.421875 55.660156 C 30.421875 55.390625 30.519531 55.164062 30.710938 54.972656 C 30.898438 54.78125 31.128906 54.6875 31.398438 54.6875 C 31.667969 54.6875 31.898438 54.78125 32.089844 54.972656 C 32.28125 55.164062 32.375 55.390625 32.375 55.660156 L 32.375 56.851562 C 32.375 57.121094 32.28125 57.351562 32.089844 57.542969 C 31.898438 57.734375 31.667969 57.828125 31.398438 57.828125 Z M 31.398438 57.828125 " fill-opacity="1" fill-rule="nonzero"/><g clip-path="url(#37ad35f5c9)"><path fill="#fcbe00" d="M 54.152344 19.6875 L 53.484375 17.90625 L 51.703125 17.238281 L 53.484375 16.574219 L 54.152344 14.792969 L 54.816406 16.574219 L 56.597656 17.238281 L 54.785156 17.941406 Z M 54.152344 19.6875 " fill-opacity="1" fill-rule="nonzero"/></g><g clip-path="url(#ae36fb37fc)"><path fill="#fcbe00" d="M 10.054688 72.730469 L 9.207031 70.472656 L 6.949219 69.628906 L 9.207031 68.78125 L 10.054688 66.523438 L 10.898438 68.78125 L 13.160156 69.628906 L 10.859375 70.519531 Z M 10.054688 72.730469 " fill-opacity="1" fill-rule="nonzero"/></g><g clip-path="url(#7c1c67ae97)"><path fill="#f77754" d="M 65.136719 28.542969 L 64.3125 26.34375 L 62.113281 25.519531 L 64.3125 24.699219 L 65.136719 22.5 L 65.957031 24.699219 L 68.15625 25.519531 L 65.917969 26.386719 Z M 65.136719 28.542969 " fill-opacity="1" fill-rule="nonzero"/></g></svg>