<svg xmlns="http://www.w3.org/2000/svg" xmlns:xlink="http://www.w3.org/1999/xlink" width="500" zoomAndPan="magnify" viewBox="0 0 375 374.999991" height="500" preserveAspectRatio="xMidYMid meet" version="1.0"><defs><clipPath id="3e4a08a43e"><path d="M 262 22.398438 L 289 22.398438 L 289 49 L 262 49 Z M 262 22.398438 " clip-rule="nonzero"/></clipPath><clipPath id="bc7ec97d4b"><path d="M 24.394531 298 L 58 298 L 58 332 L 24.394531 332 Z M 24.394531 298 " clip-rule="nonzero"/></clipPath><clipPath id="92f734cf1e"><path d="M 318 63 L 350.644531 63 L 350.644531 96 L 318 96 Z M 318 63 " clip-rule="nonzero"/></clipPath></defs><path fill="#f77754" d="M 312.097656 332.617188 L 347.632812 116.21875 L 201.738281 92.300781 L 166.207031 308.699219 C 166.117188 309.238281 166.082031 309.777344 166.101562 310.324219 C 166.121094 310.867188 166.191406 311.40625 166.316406 311.9375 C 166.441406 312.464844 166.617188 312.980469 166.839844 313.476562 C 167.066406 313.972656 167.339844 314.441406 167.65625 314.886719 C 167.976562 315.328125 168.335938 315.734375 168.734375 316.105469 C 169.132812 316.480469 169.5625 316.808594 170.027344 317.097656 C 170.492188 317.382812 170.976562 317.621094 171.488281 317.8125 C 172 318.003906 172.523438 318.144531 173.0625 318.234375 L 302.5625 339.464844 C 303.101562 339.554688 303.640625 339.589844 304.1875 339.570312 C 304.730469 339.550781 305.269531 339.480469 305.800781 339.355469 C 306.332031 339.230469 306.84375 339.054688 307.34375 338.832031 C 307.839844 338.605469 308.308594 338.332031 308.75 338.015625 C 309.195312 337.695312 309.601562 337.339844 309.972656 336.941406 C 310.347656 336.542969 310.675781 336.109375 310.960938 335.648438 C 311.25 335.183594 311.488281 334.699219 311.679688 334.1875 C 311.871094 333.675781 312.011719 333.152344 312.097656 332.617188 Z M 312.097656 332.617188 " fill-opacity="1" fill-rule="nonzero"/><path fill="#ea6142" d="M 166.207031 308.695312 C 166.117188 309.234375 166.082031 309.773438 166.101562 310.320312 C 166.121094 310.863281 166.191406 311.402344 166.316406 311.933594 C 166.441406 312.460938 166.617188 312.976562 166.839844 313.472656 C 167.066406 313.96875 167.339844 314.4375 167.65625 314.878906 C 167.976562 315.324219 168.335938 315.730469 168.734375 316.101562 C 169.132812 316.476562 169.5625 316.804688 170.027344 317.09375 C 170.488281 317.378906 170.976562 317.617188 171.488281 317.808594 C 172 318 172.523438 318.140625 173.0625 318.230469 L 282.753906 336.210938 C 283.441406 335.628906 284.050781 334.972656 284.578125 334.238281 C 285.101562 333.503906 285.53125 332.714844 285.859375 331.875 C 286.1875 331.035156 286.40625 330.167969 286.515625 329.273438 C 286.625 328.375 286.625 327.480469 286.511719 326.585938 L 257.785156 101.488281 L 201.730469 92.300781 Z M 166.207031 308.695312 " fill-opacity="1" fill-rule="nonzero"/><path fill="#ea6142" d="M 286.675781 179.128906 C 286.675781 179.851562 286.640625 180.566406 286.570312 181.28125 C 286.5 182 286.394531 182.710938 286.253906 183.414062 C 286.113281 184.121094 285.9375 184.816406 285.730469 185.503906 C 285.519531 186.195312 285.277344 186.871094 285.003906 187.535156 C 284.726562 188.199219 284.421875 188.847656 284.082031 189.484375 C 283.742188 190.117188 283.371094 190.734375 282.972656 191.332031 C 282.574219 191.929688 282.144531 192.507812 281.6875 193.0625 C 281.230469 193.617188 280.75 194.152344 280.238281 194.660156 C 279.730469 195.167969 279.199219 195.652344 278.640625 196.105469 C 278.085938 196.5625 277.507812 196.992188 276.910156 197.390625 C 276.308594 197.789062 275.695312 198.160156 275.058594 198.5 C 274.425781 198.839844 273.773438 199.144531 273.109375 199.421875 C 272.445312 199.695312 271.765625 199.9375 271.078125 200.148438 C 270.390625 200.355469 269.691406 200.53125 268.984375 200.671875 C 268.28125 200.8125 267.570312 200.917969 266.851562 200.988281 C 266.136719 201.058594 265.417969 201.09375 264.699219 201.09375 C 263.976562 201.09375 263.261719 201.058594 262.542969 200.988281 C 261.828125 200.917969 261.117188 200.8125 260.410156 200.671875 C 259.703125 200.53125 259.007812 200.355469 258.316406 200.148438 C 257.628906 199.9375 256.953125 199.695312 256.289062 199.421875 C 255.621094 199.144531 254.972656 198.839844 254.335938 198.5 C 253.703125 198.160156 253.085938 197.789062 252.488281 197.390625 C 251.890625 196.992188 251.3125 196.5625 250.753906 196.105469 C 250.199219 195.652344 249.667969 195.167969 249.15625 194.660156 C 248.648438 194.152344 248.164062 193.617188 247.707031 193.0625 C 247.253906 192.507812 246.824219 191.929688 246.421875 191.332031 C 246.023438 190.734375 245.652344 190.117188 245.316406 189.484375 C 244.976562 188.847656 244.667969 188.199219 244.394531 187.535156 C 244.117188 186.871094 243.875 186.195312 243.667969 185.503906 C 243.457031 184.816406 243.28125 184.121094 243.140625 183.414062 C 243 182.710938 242.894531 182 242.824219 181.28125 C 242.753906 180.566406 242.71875 179.851562 242.71875 179.128906 C 242.71875 178.410156 242.753906 177.695312 242.824219 176.976562 C 242.894531 176.261719 243 175.550781 243.140625 174.847656 C 243.28125 174.140625 243.457031 173.445312 243.667969 172.753906 C 243.875 172.066406 244.117188 171.390625 244.394531 170.726562 C 244.667969 170.0625 244.976562 169.410156 245.316406 168.777344 C 245.652344 168.144531 246.023438 167.527344 246.421875 166.929688 C 246.824219 166.332031 247.253906 165.753906 247.707031 165.199219 C 248.164062 164.640625 248.648438 164.109375 249.15625 163.601562 C 249.667969 163.09375 250.199219 162.609375 250.753906 162.152344 C 251.3125 161.695312 251.890625 161.269531 252.488281 160.871094 C 253.085938 160.46875 253.703125 160.101562 254.335938 159.761719 C 254.972656 159.421875 255.621094 159.117188 256.289062 158.839844 C 256.953125 158.566406 257.628906 158.324219 258.316406 158.113281 C 259.007812 157.90625 259.703125 157.730469 260.410156 157.589844 C 261.117188 157.449219 261.828125 157.34375 262.542969 157.273438 C 263.261719 157.203125 263.976562 157.167969 264.699219 157.167969 C 265.417969 157.167969 266.136719 157.203125 266.851562 157.273438 C 267.570312 157.34375 268.28125 157.449219 268.984375 157.589844 C 269.691406 157.730469 270.390625 157.90625 271.078125 158.113281 C 271.765625 158.324219 272.445312 158.566406 273.109375 158.839844 C 273.773438 159.117188 274.425781 159.421875 275.058594 159.761719 C 275.695312 160.101562 276.308594 160.46875 276.910156 160.871094 C 277.507812 161.269531 278.085938 161.695312 278.640625 162.152344 C 279.199219 162.609375 279.730469 163.09375 280.238281 163.601562 C 280.75 164.109375 281.230469 164.640625 281.6875 165.199219 C 282.144531 165.753906 282.574219 166.332031 282.972656 166.929688 C 283.371094 167.527344 283.742188 168.144531 284.082031 168.777344 C 284.421875 169.410156 284.726562 170.0625 285.003906 170.726562 C 285.277344 171.390625 285.519531 172.066406 285.730469 172.753906 C 285.9375 173.445312 286.113281 174.140625 286.253906 174.847656 C 286.394531 175.550781 286.5 176.261719 286.570312 176.976562 C 286.640625 177.695312 286.675781 178.410156 286.675781 179.128906 Z M 286.675781 179.128906 " fill-opacity="1" fill-rule="nonzero"/><path fill="#fcbe00" d="M 281.554688 321.351562 L 198.753906 307.777344 C 198.296875 307.699219 197.867188 307.539062 197.472656 307.296875 C 197.078125 307.050781 196.746094 306.738281 196.472656 306.359375 C 196.203125 305.980469 196.015625 305.566406 195.910156 305.113281 C 195.804688 304.660156 195.789062 304.203125 195.867188 303.746094 C 195.980469 303.066406 196.023438 302.382812 196 301.695312 C 195.976562 301.007812 195.886719 300.328125 195.730469 299.660156 C 195.574219 298.988281 195.351562 298.339844 195.070312 297.714844 C 194.785156 297.085938 194.441406 296.492188 194.039062 295.933594 C 193.636719 295.375 193.183594 294.859375 192.679688 294.390625 C 192.179688 293.921875 191.632812 293.503906 191.050781 293.140625 C 190.464844 292.777344 189.847656 292.476562 189.203125 292.234375 C 188.558594 291.992188 187.898438 291.816406 187.21875 291.707031 C 186.757812 291.628906 186.332031 291.472656 185.933594 291.226562 C 185.539062 290.980469 185.207031 290.667969 184.933594 290.289062 C 184.664062 289.910156 184.476562 289.496094 184.371094 289.042969 C 184.269531 288.589844 184.253906 288.132812 184.332031 287.675781 L 211.445312 122.5625 C 211.523438 122.105469 211.6875 121.6875 211.933594 121.296875 C 212.179688 120.90625 212.488281 120.578125 212.863281 120.3125 C 213.242188 120.046875 213.652344 119.859375 214.101562 119.757812 C 214.550781 119.652344 215.003906 119.640625 215.457031 119.714844 C 215.910156 119.789062 216.335938 119.945312 216.726562 120.1875 C 217.117188 120.429688 217.449219 120.738281 217.71875 121.109375 C 217.992188 121.480469 218.179688 121.890625 218.289062 122.339844 C 218.398438 122.785156 218.414062 123.238281 218.347656 123.691406 L 191.730469 285.6875 C 192.523438 285.992188 193.292969 286.355469 194.039062 286.773438 C 194.78125 287.1875 195.488281 287.65625 196.164062 288.175781 C 196.839844 288.695312 197.472656 289.261719 198.066406 289.875 C 198.65625 290.488281 199.203125 291.140625 199.699219 291.832031 C 200.195312 292.523438 200.640625 293.246094 201.03125 294.003906 C 201.421875 294.761719 201.757812 295.542969 202.035156 296.347656 C 202.3125 297.152344 202.53125 297.972656 202.6875 298.808594 C 202.847656 299.644531 202.941406 300.488281 202.976562 301.339844 L 279.570312 313.898438 C 279.875 313.101562 280.238281 312.332031 280.65625 311.589844 C 281.070312 310.847656 281.539062 310.140625 282.0625 309.464844 C 282.582031 308.792969 283.148438 308.160156 283.761719 307.566406 C 284.375 306.976562 285.027344 306.433594 285.71875 305.933594 C 286.410156 305.4375 287.136719 304.996094 287.890625 304.605469 C 288.648438 304.214844 289.429688 303.878906 290.238281 303.601562 C 291.042969 303.324219 291.863281 303.109375 292.699219 302.949219 C 293.539062 302.792969 294.382812 302.695312 295.234375 302.664062 L 321.851562 140.640625 C 321.929688 140.1875 322.09375 139.765625 322.339844 139.378906 C 322.582031 138.988281 322.894531 138.660156 323.269531 138.394531 C 323.644531 138.128906 324.058594 137.941406 324.507812 137.839844 C 324.957031 137.734375 325.40625 137.71875 325.863281 137.796875 C 326.316406 137.871094 326.738281 138.027344 327.132812 138.269531 C 327.523438 138.511719 327.855469 138.820312 328.125 139.191406 C 328.394531 139.5625 328.585938 139.972656 328.691406 140.421875 C 328.800781 140.867188 328.820312 141.320312 328.75 141.773438 L 301.636719 306.941406 C 301.5625 307.402344 301.402344 307.828125 301.15625 308.222656 C 300.910156 308.617188 300.601562 308.949219 300.222656 309.21875 C 299.84375 309.492188 299.425781 309.679688 298.972656 309.78125 C 298.519531 309.886719 298.0625 309.902344 297.605469 309.824219 C 296.925781 309.710938 296.242188 309.667969 295.554688 309.691406 C 294.863281 309.710938 294.183594 309.804688 293.515625 309.960938 C 292.84375 310.117188 292.195312 310.335938 291.566406 310.621094 C 290.941406 310.90625 290.347656 311.25 289.785156 311.652344 C 289.226562 312.054688 288.710938 312.503906 288.242188 313.007812 C 287.773438 313.511719 287.355469 314.054688 286.992188 314.640625 C 286.628906 315.226562 286.328125 315.839844 286.085938 316.484375 C 285.84375 317.128906 285.667969 317.792969 285.554688 318.472656 C 285.480469 318.925781 285.320312 319.351562 285.078125 319.742188 C 284.835938 320.136719 284.523438 320.464844 284.148438 320.734375 C 283.777344 321.007812 283.363281 321.195312 282.914062 321.300781 C 282.464844 321.40625 282.011719 321.425781 281.554688 321.351562 Z M 281.554688 321.351562 " fill-opacity="1" fill-rule="nonzero"/><path fill="#f2a700" d="M 279.582031 313.945312 L 202.988281 301.390625 C 202.953125 300.539062 202.859375 299.695312 202.699219 298.859375 C 202.542969 298.023438 202.324219 297.199219 202.050781 296.394531 C 201.773438 295.589844 201.4375 294.8125 201.046875 294.054688 C 200.65625 293.296875 200.210938 292.574219 199.714844 291.882812 C 199.21875 291.191406 198.675781 290.539062 198.082031 289.925781 C 197.492188 289.3125 196.859375 288.746094 196.183594 288.226562 C 195.511719 287.707031 194.800781 287.238281 194.058594 286.820312 C 193.316406 286.402344 192.550781 286.042969 191.753906 285.738281 L 218.371094 123.742188 C 218.441406 123.285156 218.421875 122.835938 218.3125 122.386719 C 218.203125 121.941406 218.015625 121.53125 217.746094 121.15625 C 217.476562 120.785156 217.144531 120.476562 216.75 120.234375 C 216.359375 119.992188 215.9375 119.835938 215.480469 119.761719 C 215.027344 119.6875 214.574219 119.699219 214.125 119.804688 C 213.675781 119.910156 213.265625 120.09375 212.890625 120.359375 C 212.511719 120.628906 212.203125 120.957031 211.957031 121.34375 C 211.710938 121.734375 211.550781 122.15625 211.46875 122.609375 L 184.332031 287.707031 C 184.253906 288.167969 184.269531 288.621094 184.371094 289.074219 C 184.476562 289.527344 184.664062 289.945312 184.933594 290.324219 C 185.207031 290.699219 185.539062 291.011719 185.933594 291.257812 C 186.332031 291.503906 186.757812 291.664062 187.21875 291.738281 C 187.898438 291.847656 188.558594 292.023438 189.203125 292.265625 C 189.847656 292.507812 190.464844 292.8125 191.050781 293.175781 C 191.632812 293.535156 192.179688 293.953125 192.683594 294.421875 C 193.183594 294.894531 193.636719 295.40625 194.039062 295.96875 C 194.441406 296.527344 194.785156 297.117188 195.070312 297.746094 C 195.351562 298.371094 195.574219 299.019531 195.730469 299.691406 C 195.886719 300.359375 195.976562 301.039062 196 301.726562 C 196.023438 302.414062 195.980469 303.097656 195.867188 303.777344 C 195.789062 304.238281 195.804688 304.691406 195.910156 305.144531 C 196.015625 305.597656 196.203125 306.015625 196.472656 306.390625 C 196.746094 306.769531 197.078125 307.082031 197.472656 307.328125 C 197.867188 307.574219 198.296875 307.734375 198.753906 307.808594 L 281.554688 321.382812 C 281.988281 321.453125 282.421875 321.441406 282.851562 321.34375 C 283.28125 321.25 283.679688 321.078125 284.042969 320.832031 C 284.40625 320.585938 284.714844 320.28125 284.964844 319.921875 C 285.210938 319.558594 285.386719 319.160156 285.484375 318.734375 L 284.042969 307.421875 C 282.046875 309.25 280.5625 311.421875 279.582031 313.945312 Z M 279.582031 313.945312 " fill-opacity="1" fill-rule="nonzero"/><path fill="#ffed9f" d="M 279.582031 313.945312 L 203.363281 301.453125 C 203.386719 301.726562 203.445312 301.996094 203.457031 302.257812 L 280.070312 314.835938 C 280.375 314.039062 280.738281 313.273438 281.152344 312.53125 C 281.570312 311.789062 282.039062 311.078125 282.558594 310.40625 C 283.078125 309.730469 283.644531 309.097656 284.257812 308.503906 C 284.871094 307.914062 285.523438 307.371094 286.214844 306.871094 C 286.910156 306.375 287.632812 305.933594 288.390625 305.542969 C 289.144531 305.148438 289.925781 304.816406 290.734375 304.539062 C 291.539062 304.261719 292.359375 304.042969 293.199219 303.886719 C 294.035156 303.726562 294.878906 303.632812 295.730469 303.597656 L 322.347656 141.582031 C 322.449219 140.894531 322.730469 140.296875 323.195312 139.78125 C 323.65625 139.265625 324.226562 138.917969 324.894531 138.742188 C 325.566406 138.570312 326.230469 138.59375 326.886719 138.816406 C 327.542969 139.039062 328.082031 139.421875 328.507812 139.96875 C 328.292969 139.402344 327.953125 138.921875 327.484375 138.535156 C 327.015625 138.144531 326.480469 137.898438 325.882812 137.792969 C 325.425781 137.714844 324.96875 137.730469 324.515625 137.832031 C 324.0625 137.9375 323.644531 138.125 323.265625 138.394531 C 322.890625 138.667969 322.578125 139 322.332031 139.394531 C 322.085938 139.789062 321.925781 140.214844 321.851562 140.675781 L 295.234375 302.695312 C 294.382812 302.730469 293.539062 302.828125 292.703125 302.984375 C 291.863281 303.144531 291.042969 303.363281 290.238281 303.640625 C 289.433594 303.917969 288.652344 304.253906 287.894531 304.644531 C 287.136719 305.035156 286.414062 305.480469 285.722656 305.976562 C 285.03125 306.476562 284.378906 307.019531 283.765625 307.613281 C 283.152344 308.203125 282.589844 308.835938 282.070312 309.511719 C 281.546875 310.1875 281.082031 310.894531 280.664062 311.636719 C 280.246094 312.382812 279.886719 313.148438 279.582031 313.945312 Z M 279.582031 313.945312 " fill-opacity="1" fill-rule="nonzero"/><path fill="#ffed9f" d="M 192.222656 286.628906 C 194.121094 287.359375 195.84375 288.390625 197.382812 289.726562 C 198.921875 291.058594 200.191406 292.613281 201.1875 294.390625 C 200.257812 292.507812 199.03125 290.84375 197.503906 289.402344 C 195.976562 287.964844 194.246094 286.832031 192.3125 286.015625 Z M 192.222656 286.628906 " fill-opacity="1" fill-rule="nonzero"/><path fill="#ffed9f" d="M 196.351562 304.648438 C 196.539062 303.476562 196.523438 302.308594 196.308594 301.144531 C 196.09375 299.976562 195.691406 298.878906 195.101562 297.851562 C 195.945312 299.746094 196.203125 301.714844 195.867188 303.761719 C 195.707031 304.78125 195.953125 305.6875 196.609375 306.488281 C 196.347656 305.898438 196.261719 305.285156 196.351562 304.648438 Z M 196.351562 304.648438 " fill-opacity="1" fill-rule="nonzero"/><path fill="#ffed9f" d="M 184.8125 288.597656 L 211.917969 123.484375 C 212.019531 122.796875 212.300781 122.199219 212.765625 121.683594 C 213.230469 121.167969 213.796875 120.820312 214.464844 120.644531 C 215.136719 120.472656 215.800781 120.496094 216.457031 120.71875 C 217.113281 120.941406 217.65625 121.324219 218.078125 121.871094 C 217.863281 121.304688 217.523438 120.824219 217.054688 120.4375 C 216.585938 120.046875 216.054688 119.800781 215.453125 119.695312 C 214.996094 119.617188 214.539062 119.628906 214.085938 119.734375 C 213.632812 119.839844 213.214844 120.027344 212.835938 120.296875 C 212.457031 120.566406 212.148438 120.902344 211.902344 121.296875 C 211.65625 121.691406 211.496094 122.117188 211.421875 122.578125 L 184.332031 287.707031 C 184.167969 288.726562 184.414062 289.636719 185.070312 290.433594 C 184.8125 289.84375 184.726562 289.234375 184.8125 288.597656 Z M 184.8125 288.597656 " fill-opacity="1" fill-rule="nonzero"/><path fill="#ea6142" d="M 347.632812 116.222656 C 347.316406 118.15625 346.921875 120.074219 346.449219 121.976562 C 345.980469 123.878906 345.4375 125.757812 344.816406 127.617188 C 344.195312 129.476562 343.503906 131.308594 342.738281 133.113281 C 341.972656 134.917969 341.136719 136.6875 340.230469 138.425781 C 339.324219 140.160156 338.351562 141.859375 337.308594 143.519531 C 336.265625 145.179688 335.160156 146.796875 333.988281 148.367188 C 332.820312 149.941406 331.589844 151.464844 330.296875 152.9375 C 329.003906 154.414062 327.65625 155.832031 326.253906 157.199219 C 324.847656 158.566406 323.390625 159.875 321.882812 161.128906 C 320.371094 162.378906 318.816406 163.570312 317.210938 164.695312 C 315.609375 165.824219 313.964844 166.886719 312.273438 167.882812 C 310.585938 168.878906 308.863281 169.808594 307.097656 170.667969 C 305.335938 171.527344 303.542969 172.316406 301.71875 173.03125 C 299.894531 173.75 298.042969 174.394531 296.167969 174.960938 C 294.292969 175.53125 292.394531 176.027344 290.480469 176.445312 C 288.566406 176.867188 286.636719 177.207031 284.691406 177.472656 L 241.792969 170.433594 C 240.035156 169.5625 238.320312 168.621094 236.636719 167.613281 C 234.957031 166.601562 233.320312 165.527344 231.722656 164.390625 C 230.128906 163.25 228.582031 162.050781 227.082031 160.789062 C 225.582031 159.527344 224.132812 158.207031 222.738281 156.828125 C 221.34375 155.453125 220.007812 154.023438 218.726562 152.539062 C 217.445312 151.054688 216.226562 149.523438 215.066406 147.941406 C 213.90625 146.363281 212.8125 144.738281 211.785156 143.070312 C 210.753906 141.402344 209.792969 139.699219 208.898438 137.953125 C 208.003906 136.210938 207.179688 134.433594 206.429688 132.625 C 205.675781 130.816406 204.996094 128.980469 204.390625 127.117188 C 203.785156 125.253906 203.253906 123.367188 202.796875 121.464844 C 202.339844 119.558594 201.960938 117.636719 201.65625 115.703125 C 201.351562 113.765625 201.125 111.820312 200.976562 109.867188 C 200.828125 107.914062 200.757812 105.957031 200.765625 104 C 200.773438 102.039062 200.855469 100.082031 201.019531 98.128906 C 201.183594 96.179688 201.421875 94.234375 201.738281 92.300781 Z M 347.632812 116.222656 " fill-opacity="1" fill-rule="nonzero"/><path fill="#e04b32" d="M 241.792969 170.433594 L 267.105469 174.585938 L 257.785156 101.488281 L 201.730469 92.300781 C 201.414062 94.234375 201.171875 96.179688 201.011719 98.128906 C 200.847656 100.082031 200.765625 102.039062 200.757812 104 C 200.75 105.957031 200.820312 107.914062 200.96875 109.867188 C 201.121094 111.820312 201.34375 113.765625 201.648438 115.703125 C 201.953125 117.636719 202.332031 119.558594 202.789062 121.464844 C 203.246094 123.371094 203.777344 125.253906 204.382812 127.117188 C 204.992188 128.980469 205.671875 130.816406 206.421875 132.625 C 207.175781 134.433594 208 136.210938 208.894531 137.957031 C 209.789062 139.699219 210.75 141.40625 211.78125 143.074219 C 212.808594 144.738281 213.902344 146.363281 215.0625 147.945312 C 216.222656 149.523438 217.441406 151.054688 218.722656 152.539062 C 220.003906 154.023438 221.34375 155.453125 222.738281 156.832031 C 224.132812 158.207031 225.578125 159.527344 227.078125 160.789062 C 228.578125 162.050781 230.125 163.25 231.722656 164.390625 C 233.316406 165.53125 234.957031 166.605469 236.636719 167.613281 C 238.316406 168.621094 240.035156 169.5625 241.792969 170.433594 Z M 241.792969 170.433594 " fill-opacity="1" fill-rule="nonzero"/><path fill="#e04b32" d="M 268.375 158.351562 C 267.195312 158.160156 266.003906 158.0625 264.804688 158.066406 C 263.605469 158.066406 262.417969 158.164062 261.234375 158.363281 C 260.054688 158.558594 258.894531 158.847656 257.761719 159.234375 C 256.625 159.617188 255.53125 160.09375 254.472656 160.660156 C 253.417969 161.222656 252.414062 161.871094 251.460938 162.597656 C 250.511719 163.328125 249.625 164.128906 248.808594 165 C 247.988281 165.875 247.242188 166.808594 246.578125 167.804688 C 245.910156 168.796875 245.328125 169.839844 244.832031 170.929688 L 284.699219 177.464844 C 285.34375 177.382812 285.96875 177.238281 286.601562 177.132812 C 286.445312 175.972656 286.199219 174.832031 285.863281 173.710938 C 285.527344 172.589844 285.105469 171.503906 284.59375 170.449219 C 284.082031 169.398438 283.492188 168.390625 282.820312 167.433594 C 282.148438 166.472656 281.40625 165.574219 280.589844 164.734375 C 279.777344 163.894531 278.898438 163.125 277.960938 162.425781 C 277.023438 161.726562 276.035156 161.105469 274.996094 160.5625 C 273.960938 160.019531 272.886719 159.5625 271.773438 159.195312 C 270.664062 158.824219 269.53125 158.542969 268.375 158.351562 Z M 268.375 158.351562 " fill-opacity="1" fill-rule="nonzero"/><path fill="#ffd92e" d="M 284.695312 177.152344 C 284.695312 177.871094 284.660156 178.589844 284.589844 179.304688 C 284.519531 180.019531 284.414062 180.730469 284.273438 181.4375 C 284.132812 182.140625 283.960938 182.839844 283.75 183.527344 C 283.542969 184.214844 283.300781 184.890625 283.023438 185.554688 C 282.75 186.222656 282.441406 186.871094 282.101562 187.503906 C 281.761719 188.140625 281.394531 188.753906 280.992188 189.351562 C 280.59375 189.953125 280.164062 190.527344 279.707031 191.085938 C 279.25 191.640625 278.769531 192.171875 278.257812 192.679688 C 277.75 193.191406 277.21875 193.671875 276.660156 194.128906 C 276.105469 194.585938 275.527344 195.011719 274.929688 195.414062 C 274.332031 195.8125 273.714844 196.179688 273.078125 196.519531 C 272.445312 196.859375 271.792969 197.167969 271.128906 197.441406 C 270.464844 197.71875 269.785156 197.960938 269.097656 198.167969 C 268.410156 198.378906 267.710938 198.550781 267.007812 198.691406 C 266.300781 198.832031 265.589844 198.9375 264.871094 199.007812 C 264.15625 199.078125 263.4375 199.113281 262.71875 199.113281 C 262 199.113281 261.28125 199.078125 260.5625 199.007812 C 259.847656 198.9375 259.136719 198.832031 258.429688 198.691406 C 257.722656 198.550781 257.027344 198.378906 256.339844 198.167969 C 255.648438 197.960938 254.972656 197.71875 254.308594 197.441406 C 253.640625 197.167969 252.992188 196.859375 252.359375 196.519531 C 251.722656 196.179688 251.105469 195.8125 250.507812 195.414062 C 249.910156 195.011719 249.332031 194.585938 248.773438 194.128906 C 248.21875 193.671875 247.6875 193.191406 247.175781 192.679688 C 246.667969 192.171875 246.183594 191.640625 245.730469 191.085938 C 245.273438 190.527344 244.84375 189.953125 244.445312 189.351562 C 244.042969 188.753906 243.675781 188.140625 243.335938 187.503906 C 242.996094 186.871094 242.6875 186.222656 242.414062 185.554688 C 242.136719 184.890625 241.894531 184.214844 241.6875 183.527344 C 241.476562 182.839844 241.300781 182.140625 241.160156 181.4375 C 241.023438 180.730469 240.917969 180.019531 240.84375 179.304688 C 240.773438 178.589844 240.738281 177.871094 240.738281 177.152344 C 240.738281 176.433594 240.773438 175.714844 240.84375 175 C 240.917969 174.285156 241.023438 173.574219 241.160156 172.867188 C 241.300781 172.160156 241.476562 171.464844 241.6875 170.777344 C 241.894531 170.089844 242.136719 169.410156 242.414062 168.746094 C 242.6875 168.082031 242.996094 167.433594 243.335938 166.800781 C 243.675781 166.164062 244.042969 165.546875 244.445312 164.949219 C 244.84375 164.351562 245.273438 163.773438 245.730469 163.21875 C 246.183594 162.664062 246.667969 162.128906 247.175781 161.621094 C 247.6875 161.113281 248.21875 160.632812 248.773438 160.175781 C 249.332031 159.71875 249.910156 159.289062 250.507812 158.890625 C 251.105469 158.492188 251.722656 158.121094 252.359375 157.78125 C 252.992188 157.445312 253.640625 157.136719 254.308594 156.863281 C 254.972656 156.585938 255.648438 156.34375 256.339844 156.136719 C 257.027344 155.925781 257.722656 155.753906 258.429688 155.613281 C 259.136719 155.472656 259.847656 155.367188 260.5625 155.296875 C 261.28125 155.226562 262 155.191406 262.71875 155.191406 C 263.4375 155.191406 264.15625 155.226562 264.871094 155.296875 C 265.589844 155.367188 266.300781 155.472656 267.007812 155.613281 C 267.710938 155.753906 268.410156 155.925781 269.097656 156.136719 C 269.785156 156.34375 270.464844 156.585938 271.128906 156.863281 C 271.792969 157.136719 272.445312 157.445312 273.078125 157.78125 C 273.714844 158.121094 274.332031 158.492188 274.929688 158.890625 C 275.527344 159.289062 276.105469 159.71875 276.660156 160.175781 C 277.21875 160.632812 277.75 161.113281 278.257812 161.621094 C 278.769531 162.128906 279.25 162.664062 279.707031 163.21875 C 280.164062 163.773438 280.59375 164.351562 280.992188 164.949219 C 281.394531 165.546875 281.761719 166.164062 282.101562 166.800781 C 282.441406 167.433594 282.75 168.082031 283.023438 168.746094 C 283.300781 169.410156 283.542969 170.089844 283.75 170.777344 C 283.960938 171.464844 284.132812 172.160156 284.273438 172.867188 C 284.414062 173.574219 284.519531 174.285156 284.589844 175 C 284.660156 175.714844 284.695312 176.433594 284.695312 177.152344 Z M 284.695312 177.152344 " fill-opacity="1" fill-rule="nonzero"/><path fill="#f2a700" d="M 264.644531 155.296875 C 263.832031 155.226562 263.015625 155.199219 262.195312 155.21875 C 261.378906 155.238281 260.566406 155.304688 259.753906 155.414062 C 258.945312 155.523438 258.140625 155.679688 257.347656 155.878906 C 256.554688 156.078125 255.777344 156.320312 255.007812 156.609375 C 254.242188 156.894531 253.496094 157.222656 252.765625 157.59375 C 252.035156 157.964844 251.332031 158.371094 250.648438 158.820312 C 249.964844 159.269531 249.308594 159.757812 248.679688 160.277344 C 248.046875 160.800781 247.449219 161.355469 246.882812 161.945312 C 246.316406 162.535156 245.785156 163.152344 245.285156 163.800781 C 244.789062 164.449219 244.328125 165.125 243.90625 165.824219 C 243.480469 166.523438 243.101562 167.246094 242.757812 167.988281 C 242.417969 168.730469 242.117188 169.492188 241.859375 170.265625 C 241.601562 171.042969 241.390625 171.832031 241.21875 172.628906 C 241.050781 173.429688 240.929688 174.238281 240.847656 175.050781 C 240.769531 175.863281 240.738281 176.679688 240.75 177.496094 C 240.761719 178.3125 240.820312 179.128906 240.921875 179.9375 C 241.027344 180.75 241.175781 181.550781 241.367188 182.347656 C 241.5625 183.140625 241.796875 183.921875 242.078125 184.691406 C 242.359375 185.457031 242.683594 186.207031 243.046875 186.941406 C 243.410156 187.671875 243.816406 188.382812 244.257812 189.066406 C 244.703125 189.753906 245.183594 190.414062 245.699219 191.046875 C 246.21875 191.679688 246.769531 192.28125 247.351562 192.855469 C 247.9375 193.425781 248.554688 193.964844 249.199219 194.464844 C 249.84375 194.96875 250.511719 195.433594 251.210938 195.863281 C 251.90625 196.292969 252.625 196.679688 253.367188 197.027344 C 254.105469 197.375 254.863281 197.679688 255.636719 197.945312 C 256.414062 198.207031 257.199219 198.425781 258 198.601562 C 258.796875 198.777344 259.605469 198.90625 260.417969 198.992188 C 261.230469 199.078125 262.046875 199.117188 262.863281 199.113281 C 263.683594 199.105469 264.496094 199.054688 265.308594 198.960938 C 266.121094 198.863281 266.925781 198.722656 267.722656 198.535156 C 268.519531 198.347656 269.304688 198.117188 270.074219 197.84375 Z M 264.644531 155.296875 " fill-opacity="1" fill-rule="nonzero"/><path fill="#ffed9f" d="M 276.925781 177.152344 C 276.925781 178.082031 276.835938 179.007812 276.652344 179.921875 C 276.46875 180.835938 276.199219 181.722656 275.84375 182.585938 C 275.488281 183.445312 275.050781 184.265625 274.53125 185.039062 C 274.011719 185.8125 273.425781 186.53125 272.765625 187.191406 C 272.105469 187.847656 271.386719 188.4375 270.609375 188.957031 C 269.835938 189.472656 269.015625 189.910156 268.15625 190.269531 C 267.292969 190.625 266.40625 190.894531 265.488281 191.074219 C 264.574219 191.257812 263.652344 191.347656 262.71875 191.347656 C 261.785156 191.347656 260.863281 191.257812 259.945312 191.074219 C 259.03125 190.894531 258.144531 190.625 257.28125 190.269531 C 256.417969 189.910156 255.601562 189.472656 254.824219 188.957031 C 254.050781 188.4375 253.332031 187.847656 252.671875 187.191406 C 252.011719 186.53125 251.421875 185.8125 250.90625 185.039062 C 250.386719 184.265625 249.949219 183.445312 249.59375 182.585938 C 249.234375 181.722656 248.964844 180.835938 248.785156 179.921875 C 248.601562 179.007812 248.511719 178.082031 248.511719 177.152344 C 248.511719 176.21875 248.601562 175.296875 248.785156 174.382812 C 248.964844 173.46875 249.234375 172.582031 249.59375 171.71875 C 249.949219 170.859375 250.386719 170.039062 250.90625 169.265625 C 251.421875 168.488281 252.011719 167.773438 252.671875 167.113281 C 253.332031 166.453125 254.050781 165.867188 254.824219 165.347656 C 255.601562 164.828125 256.417969 164.390625 257.28125 164.035156 C 258.144531 163.679688 259.03125 163.410156 259.945312 163.226562 C 260.863281 163.046875 261.785156 162.953125 262.71875 162.953125 C 263.652344 162.953125 264.574219 163.046875 265.488281 163.226562 C 266.40625 163.410156 267.292969 163.679688 268.15625 164.035156 C 269.015625 164.390625 269.835938 164.828125 270.613281 165.347656 C 271.386719 165.867188 272.105469 166.453125 272.765625 167.113281 C 273.425781 167.773438 274.011719 168.488281 274.53125 169.265625 C 275.050781 170.039062 275.488281 170.859375 275.84375 171.71875 C 276.199219 172.582031 276.46875 173.46875 276.652344 174.382812 C 276.835938 175.296875 276.925781 176.21875 276.925781 177.152344 Z M 276.925781 177.152344 " fill-opacity="1" fill-rule="nonzero"/><path fill="#ffd92e" d="M 269.050781 189.820312 L 265.671875 163.320312 C 265.449219 163.273438 265.246094 163.179688 265.015625 163.144531 C 264.464844 163.050781 263.910156 162.992188 263.351562 162.964844 C 262.792969 162.9375 262.234375 162.941406 261.675781 162.980469 C 261.117188 163.019531 260.5625 163.089844 260.015625 163.195312 C 259.464844 163.296875 258.921875 163.433594 258.390625 163.601562 C 257.855469 163.769531 257.335938 163.96875 256.824219 164.199219 C 256.3125 164.425781 255.820312 164.6875 255.339844 164.972656 C 254.859375 165.261719 254.398438 165.578125 253.957031 165.917969 C 253.515625 166.261719 253.09375 166.628906 252.695312 167.019531 C 252.296875 167.410156 251.921875 167.824219 251.570312 168.261719 C 251.222656 168.699219 250.898438 169.152344 250.601562 169.628906 C 250.304688 170.101562 250.039062 170.589844 249.800781 171.097656 C 249.5625 171.601562 249.355469 172.121094 249.179688 172.652344 C 249 173.179688 248.855469 173.71875 248.742188 174.265625 C 248.628906 174.816406 248.546875 175.367188 248.5 175.921875 C 248.453125 176.480469 248.4375 177.039062 248.457031 177.597656 C 248.472656 178.15625 248.523438 178.710938 248.605469 179.265625 C 248.691406 179.816406 248.804688 180.363281 248.953125 180.902344 C 249.101562 181.441406 249.28125 181.96875 249.492188 182.488281 C 249.703125 183.003906 249.945312 183.507812 250.214844 184 C 250.484375 184.488281 250.78125 184.960938 251.109375 185.414062 C 251.433594 185.867188 251.785156 186.300781 252.160156 186.714844 C 252.539062 187.128906 252.9375 187.515625 253.363281 187.882812 C 253.785156 188.246094 254.230469 188.585938 254.691406 188.902344 C 255.15625 189.214844 255.636719 189.5 256.132812 189.753906 C 256.628906 190.011719 257.140625 190.238281 257.664062 190.433594 C 258.1875 190.632812 258.71875 190.796875 259.261719 190.929688 C 259.808594 191.0625 260.355469 191.164062 260.910156 191.234375 C 261.464844 191.300781 262.023438 191.335938 262.582031 191.339844 C 263.140625 191.34375 263.699219 191.3125 264.257812 191.25 C 264.8125 191.1875 265.363281 191.089844 265.90625 190.964844 C 266.449219 190.835938 266.984375 190.675781 267.511719 190.484375 C 268.039062 190.292969 268.550781 190.074219 269.050781 189.820312 Z M 269.050781 189.820312 " fill-opacity="1" fill-rule="nonzero"/><path fill="#ffd92e" d="M 274.558594 177.152344 C 274.558594 177.929688 274.484375 178.699219 274.332031 179.460938 C 274.179688 180.222656 273.953125 180.960938 273.65625 181.679688 C 273.359375 182.398438 272.996094 183.078125 272.5625 183.726562 C 272.132812 184.371094 271.640625 184.96875 271.089844 185.519531 C 270.539062 186.066406 269.941406 186.558594 269.296875 186.988281 C 268.648438 187.421875 267.96875 187.785156 267.25 188.082031 C 266.53125 188.378906 265.789062 188.605469 265.027344 188.753906 C 264.265625 188.90625 263.496094 188.984375 262.71875 188.984375 C 261.941406 188.984375 261.171875 188.90625 260.410156 188.753906 C 259.644531 188.605469 258.90625 188.378906 258.1875 188.082031 C 257.46875 187.785156 256.785156 187.421875 256.140625 186.988281 C 255.492188 186.558594 254.894531 186.066406 254.347656 185.519531 C 253.796875 184.96875 253.304688 184.371094 252.875 183.726562 C 252.441406 183.078125 252.078125 182.398438 251.777344 181.679688 C 251.480469 180.960938 251.257812 180.222656 251.105469 179.460938 C 250.953125 178.699219 250.878906 177.929688 250.878906 177.152344 C 250.878906 176.375 250.953125 175.605469 251.105469 174.84375 C 251.257812 174.082031 251.480469 173.34375 251.777344 172.625 C 252.078125 171.90625 252.441406 171.222656 252.875 170.578125 C 253.304688 169.933594 253.796875 169.335938 254.347656 168.785156 C 254.894531 168.238281 255.492188 167.746094 256.140625 167.3125 C 256.785156 166.882812 257.46875 166.519531 258.1875 166.222656 C 258.90625 165.921875 259.644531 165.699219 260.410156 165.546875 C 261.171875 165.394531 261.941406 165.320312 262.71875 165.320312 C 263.496094 165.320312 264.265625 165.394531 265.027344 165.546875 C 265.789062 165.699219 266.53125 165.921875 267.25 166.222656 C 267.96875 166.519531 268.648438 166.882812 269.296875 167.3125 C 269.941406 167.746094 270.539062 168.238281 271.089844 168.785156 C 271.640625 169.335938 272.132812 169.933594 272.5625 170.578125 C 272.996094 171.222656 273.359375 171.90625 273.65625 172.625 C 273.953125 173.339844 274.179688 174.082031 274.332031 174.84375 C 274.484375 175.605469 274.558594 176.375 274.558594 177.152344 Z M 274.558594 177.152344 " fill-opacity="1" fill-rule="nonzero"/><path fill="#f2a700" d="M 268.726562 187.285156 L 265.992188 165.839844 C 265.523438 165.703125 265.046875 165.59375 264.566406 165.511719 C 264.082031 165.433594 263.597656 165.382812 263.105469 165.363281 C 262.617188 165.34375 262.128906 165.355469 261.640625 165.398438 C 261.15625 165.4375 260.671875 165.511719 260.191406 165.609375 C 259.714844 165.710938 259.242188 165.84375 258.78125 166.003906 C 258.320312 166.164062 257.867188 166.351562 257.429688 166.566406 C 256.988281 166.78125 256.566406 167.023438 256.15625 167.292969 C 255.746094 167.558594 255.355469 167.851562 254.984375 168.167969 C 254.609375 168.484375 254.257812 168.824219 253.929688 169.183594 C 253.597656 169.546875 253.292969 169.925781 253.007812 170.324219 C 252.726562 170.722656 252.46875 171.136719 252.234375 171.566406 C 252.003906 172 251.800781 172.441406 251.621094 172.898438 C 251.445312 173.351562 251.296875 173.820312 251.179688 174.292969 C 251.058594 174.765625 250.972656 175.246094 250.910156 175.730469 C 250.851562 176.21875 250.824219 176.703125 250.824219 177.195312 C 250.824219 177.683594 250.859375 178.167969 250.917969 178.65625 C 250.980469 179.140625 251.074219 179.617188 251.195312 180.09375 C 251.316406 180.566406 251.464844 181.03125 251.644531 181.484375 C 251.824219 181.941406 252.03125 182.382812 252.265625 182.8125 C 252.5 183.242188 252.757812 183.65625 253.042969 184.050781 C 253.332031 184.449219 253.640625 184.828125 253.972656 185.183594 C 254.304688 185.542969 254.65625 185.882812 255.03125 186.195312 C 255.40625 186.511719 255.796875 186.800781 256.210938 187.066406 C 256.621094 187.332031 257.046875 187.574219 257.484375 187.785156 C 257.925781 188 258.378906 188.183594 258.839844 188.34375 C 259.304688 188.5 259.777344 188.628906 260.253906 188.726562 C 260.734375 188.824219 261.21875 188.894531 261.707031 188.933594 C 262.191406 188.972656 262.679688 188.980469 263.171875 188.957031 C 263.660156 188.9375 264.144531 188.882812 264.625 188.800781 C 265.109375 188.71875 265.585938 188.609375 266.054688 188.464844 C 266.523438 188.324219 266.980469 188.15625 267.425781 187.957031 C 267.875 187.757812 268.308594 187.535156 268.726562 187.28125 Z M 268.726562 187.285156 " fill-opacity="1" fill-rule="nonzero"/><path fill="#f77754" d="M 277.695312 317.796875 L 241.472656 33.75 L 49.96875 58.132812 L 86.191406 342.1875 C 86.28125 342.890625 86.441406 343.582031 86.667969 344.257812 C 86.894531 344.929688 87.183594 345.578125 87.535156 346.195312 C 87.890625 346.8125 88.300781 347.390625 88.769531 347.925781 C 89.234375 348.464844 89.75 348.949219 90.3125 349.386719 C 90.878906 349.820312 91.476562 350.195312 92.113281 350.515625 C 92.753906 350.832031 93.414062 351.082031 94.101562 351.269531 C 94.789062 351.457031 95.488281 351.574219 96.199219 351.625 C 96.90625 351.671875 97.617188 351.652344 98.324219 351.5625 L 268.3125 329.917969 C 269.019531 329.828125 269.707031 329.671875 270.382812 329.445312 C 271.058594 329.21875 271.707031 328.929688 272.324219 328.578125 C 272.941406 328.222656 273.519531 327.8125 274.058594 327.34375 C 274.59375 326.878906 275.082031 326.363281 275.515625 325.800781 C 275.953125 325.238281 276.328125 324.636719 276.644531 324 C 276.964844 323.363281 277.214844 322.703125 277.402344 322.015625 C 277.589844 321.328125 277.707031 320.632812 277.757812 319.921875 C 277.804688 319.210938 277.785156 318.503906 277.695312 317.796875 Z M 277.695312 317.796875 " fill-opacity="1" fill-rule="nonzero"/><path fill="#ea6142" d="M 190.074219 140.808594 C 189.964844 139.917969 189.808594 139.035156 189.613281 138.160156 C 189.417969 137.285156 189.179688 136.421875 188.902344 135.570312 C 188.625 134.71875 188.308594 133.878906 187.953125 133.058594 C 187.597656 132.234375 187.207031 131.429688 186.773438 130.644531 C 186.34375 129.859375 185.875 129.09375 185.375 128.351562 C 184.871094 127.609375 184.335938 126.890625 183.765625 126.199219 C 183.195312 125.507812 182.59375 124.84375 181.960938 124.207031 C 181.328125 123.570312 180.667969 122.96875 179.976562 122.394531 C 179.289062 121.820312 178.574219 121.28125 177.835938 120.773438 C 177.09375 120.265625 176.332031 119.792969 175.546875 119.359375 C 174.765625 118.921875 173.960938 118.527344 173.140625 118.164062 C 172.320312 117.804688 171.480469 117.484375 170.628906 117.203125 C 169.777344 116.921875 168.917969 116.679688 168.042969 116.476562 C 167.167969 116.277344 166.285156 116.117188 165.398438 116 C 164.507812 115.882812 163.613281 115.804688 162.71875 115.769531 C 161.824219 115.734375 160.925781 115.742188 160.03125 115.792969 C 159.136719 115.839844 158.242188 115.933594 157.355469 116.066406 C 156.46875 116.199219 155.589844 116.371094 154.71875 116.585938 C 153.847656 116.800781 152.988281 117.058594 152.144531 117.351562 C 151.296875 117.648438 150.464844 117.984375 149.648438 118.355469 C 148.835938 118.730469 148.039062 119.140625 147.261719 119.589844 C 146.484375 120.039062 145.730469 120.519531 145 121.039062 C 144.265625 121.558594 143.5625 122.109375 142.882812 122.695312 C 142.203125 123.28125 141.550781 123.894531 140.929688 124.542969 C 140.308594 125.1875 139.714844 125.863281 139.15625 126.5625 C 138.597656 127.265625 138.074219 127.988281 137.582031 128.738281 C 137.09375 129.492188 136.640625 130.261719 136.21875 131.054688 C 135.800781 131.847656 135.421875 132.660156 135.082031 133.488281 C 134.738281 134.316406 134.433594 135.160156 134.171875 136.015625 C 133.910156 136.871094 133.6875 137.742188 133.503906 138.617188 C 133.324219 139.496094 133.183594 140.378906 133.085938 141.269531 C 132.988281 142.164062 132.929688 143.054688 132.914062 143.953125 C 132.898438 144.847656 132.925781 145.742188 132.996094 146.636719 C 133.066406 147.53125 133.175781 148.417969 133.328125 149.300781 C 133.480469 150.1875 133.675781 151.058594 133.910156 151.925781 C 134.144531 152.789062 134.417969 153.644531 134.734375 154.480469 C 135.050781 155.320312 135.402344 156.144531 135.792969 156.949219 C 136.1875 157.757812 136.613281 158.542969 137.082031 159.308594 C 137.546875 160.074219 138.046875 160.816406 138.582031 161.539062 C 139.117188 162.257812 139.683594 162.949219 140.285156 163.617188 C 140.886719 164.28125 141.515625 164.917969 142.175781 165.523438 C 142.835938 166.132812 143.523438 166.707031 144.238281 167.25 C 144.953125 167.792969 145.6875 168.300781 146.449219 168.773438 C 147.210938 169.246094 147.996094 169.683594 148.796875 170.082031 C 149.601562 170.484375 150.417969 170.847656 151.257812 171.167969 C 152.09375 171.492188 152.941406 171.777344 153.804688 172.019531 C 154.667969 172.261719 155.542969 172.464844 156.425781 172.628906 C 157.308594 172.789062 158.195312 172.910156 159.089844 172.988281 L 159.089844 191.804688 C 158.589844 191.988281 158.105469 192.199219 157.632812 192.441406 C 157.15625 192.683594 156.703125 192.957031 156.261719 193.253906 C 155.824219 193.554688 155.402344 193.878906 155.003906 194.230469 C 154.605469 194.582031 154.230469 194.953125 153.875 195.351562 C 153.523438 195.746094 153.195312 196.164062 152.894531 196.601562 C 152.589844 197.039062 152.316406 197.492188 152.070312 197.964844 C 151.824219 198.433594 151.609375 198.917969 151.425781 199.417969 C 151.238281 199.914062 151.082031 200.421875 150.960938 200.9375 C 150.835938 201.453125 150.742188 201.976562 150.683594 202.503906 C 150.625 203.03125 150.597656 203.5625 150.605469 204.09375 C 150.609375 204.625 150.648438 205.152344 150.71875 205.679688 C 150.792969 206.203125 150.894531 206.726562 151.03125 207.238281 C 151.164062 207.753906 151.332031 208.253906 151.527344 208.75 C 151.726562 209.242188 151.953125 209.722656 152.210938 210.1875 C 152.464844 210.652344 152.75 211.097656 153.0625 211.53125 C 153.371094 211.960938 153.710938 212.371094 154.070312 212.757812 L 153.683594 212.757812 C 152.792969 213.492188 151.992188 214.3125 151.28125 215.222656 C 150.574219 216.132812 149.972656 217.109375 149.480469 218.152344 C 148.988281 219.199219 148.613281 220.28125 148.363281 221.40625 C 148.109375 222.535156 147.984375 223.675781 147.984375 224.828125 L 147.984375 255.355469 C 147.984375 255.75 148.023438 256.140625 148.097656 256.523438 C 148.175781 256.910156 148.285156 257.285156 148.4375 257.648438 C 148.585938 258.011719 148.769531 258.355469 148.988281 258.683594 C 149.207031 259.007812 149.453125 259.3125 149.730469 259.589844 C 150.007812 259.867188 150.3125 260.117188 150.636719 260.335938 C 150.964844 260.554688 151.308594 260.738281 151.671875 260.890625 C 152.035156 261.039062 152.410156 261.152344 152.792969 261.230469 C 153.179688 261.308594 153.570312 261.34375 153.960938 261.34375 L 173.320312 261.34375 C 173.710938 261.34375 174.101562 261.308594 174.484375 261.230469 C 174.871094 261.152344 175.242188 261.039062 175.605469 260.890625 C 175.96875 260.742188 176.3125 260.558594 176.636719 260.339844 C 176.964844 260.121094 177.265625 259.875 177.542969 259.597656 C 177.820312 259.320312 178.066406 259.019531 178.285156 258.691406 C 178.503906 258.367188 178.6875 258.023438 178.835938 257.660156 C 178.988281 257.300781 179.101562 256.925781 179.179688 256.542969 C 179.253906 256.15625 179.292969 255.769531 179.292969 255.378906 L 179.292969 224.828125 C 179.292969 223.652344 179.164062 222.492188 178.902344 221.347656 C 178.644531 220.203125 178.257812 219.101562 177.75 218.042969 C 177.238281 216.988281 176.617188 216 175.886719 215.082031 C 175.152344 214.164062 174.328125 213.335938 173.410156 212.605469 L 173.347656 212.605469 C 173.703125 212.214844 174.03125 211.804688 174.332031 211.371094 C 174.636719 210.941406 174.910156 210.492188 175.160156 210.027344 C 175.40625 209.5625 175.625 209.085938 175.816406 208.59375 C 176.003906 208.101562 176.164062 207.601562 176.292969 207.089844 C 176.421875 206.578125 176.519531 206.0625 176.582031 205.539062 C 176.648438 205.019531 176.679688 204.492188 176.683594 203.964844 C 176.683594 203.441406 176.652344 202.914062 176.589844 202.390625 C 176.527344 201.867188 176.429688 201.351562 176.304688 200.839844 C 176.179688 200.328125 176.019531 199.828125 175.832031 199.335938 C 175.644531 198.84375 175.429688 198.363281 175.183594 197.898438 C 174.9375 197.433594 174.664062 196.984375 174.359375 196.550781 C 174.058594 196.117188 173.734375 195.707031 173.382812 195.3125 C 173.03125 194.921875 172.65625 194.550781 172.257812 194.207031 C 171.863281 193.859375 171.445312 193.539062 171.007812 193.242188 C 170.574219 192.945312 170.121094 192.679688 169.652344 192.4375 C 169.183594 192.195312 168.703125 191.984375 168.207031 191.804688 L 168.207031 172.339844 C 169.058594 172.140625 169.902344 171.898438 170.734375 171.621094 C 171.566406 171.339844 172.382812 171.027344 173.183594 170.671875 C 173.984375 170.320312 174.769531 169.929688 175.539062 169.503906 C 176.304688 169.078125 177.050781 168.621094 177.773438 168.125 C 178.5 167.632812 179.199219 167.105469 179.875 166.550781 C 180.550781 165.992188 181.199219 165.402344 181.824219 164.785156 C 182.445312 164.167969 183.039062 163.527344 183.601562 162.855469 C 184.164062 162.183594 184.695312 161.488281 185.195312 160.765625 C 185.695312 160.046875 186.160156 159.304688 186.59375 158.542969 C 187.023438 157.78125 187.417969 157 187.777344 156.199219 C 188.140625 155.402344 188.460938 154.585938 188.746094 153.757812 C 189.03125 152.929688 189.277344 152.089844 189.484375 151.238281 C 189.695312 150.386719 189.863281 149.527344 189.992188 148.664062 C 190.121094 147.796875 190.210938 146.925781 190.261719 146.050781 C 190.308594 145.175781 190.320312 144.300781 190.289062 143.425781 C 190.257812 142.550781 190.1875 141.675781 190.074219 140.808594 Z M 190.074219 140.808594 " fill-opacity="1" fill-rule="nonzero"/><path fill="#ffd92e" d="M 169.71875 209.792969 L 149.996094 209.945312 C 149.101562 210.679688 148.300781 211.503906 147.589844 212.414062 C 146.882812 213.328125 146.28125 214.304688 145.789062 215.351562 C 145.296875 216.398438 144.925781 217.484375 144.671875 218.609375 C 144.421875 219.738281 144.296875 220.878906 144.300781 222.035156 L 144.300781 252.558594 C 144.300781 252.953125 144.339844 253.339844 144.414062 253.722656 C 144.492188 254.109375 144.605469 254.480469 144.757812 254.84375 C 144.90625 255.203125 145.089844 255.546875 145.308594 255.875 C 145.527344 256.199219 145.773438 256.5 146.050781 256.777344 C 146.328125 257.054688 146.628906 257.300781 146.957031 257.519531 C 147.28125 257.738281 147.625 257.921875 147.988281 258.070312 C 148.351562 258.21875 148.722656 258.332031 149.109375 258.410156 C 149.492188 258.484375 149.878906 258.523438 150.273438 258.523438 L 169.628906 258.523438 C 170.023438 258.527344 170.414062 258.488281 170.800781 258.414062 C 171.1875 258.335938 171.5625 258.222656 171.925781 258.074219 C 172.289062 257.925781 172.632812 257.742188 172.960938 257.523438 C 173.289062 257.304688 173.59375 257.058594 173.871094 256.777344 C 174.148438 256.5 174.398438 256.199219 174.617188 255.871094 C 174.835938 255.546875 175.019531 255.199219 175.167969 254.835938 C 175.320312 254.472656 175.433594 254.097656 175.507812 253.710938 C 175.585938 253.328125 175.625 252.9375 175.621094 252.542969 L 175.621094 222.019531 C 175.621094 220.84375 175.492188 219.683594 175.230469 218.539062 C 174.96875 217.390625 174.582031 216.289062 174.070312 215.230469 C 173.558594 214.171875 172.9375 213.183594 172.203125 212.265625 C 171.46875 211.347656 170.640625 210.523438 169.71875 209.792969 Z M 169.71875 209.792969 " fill-opacity="1" fill-rule="nonzero"/><path fill="#fff3e9" d="M 159.953125 200.496094 C 159.652344 200.496094 159.355469 200.46875 159.058594 200.410156 C 158.765625 200.351562 158.480469 200.261719 158.203125 200.148438 C 157.925781 200.035156 157.664062 199.894531 157.414062 199.726562 C 157.164062 199.558594 156.933594 199.371094 156.722656 199.160156 C 156.511719 198.945312 156.320312 198.714844 156.15625 198.464844 C 155.988281 198.21875 155.847656 197.953125 155.734375 197.675781 C 155.617188 197.398438 155.53125 197.113281 155.472656 196.820312 C 155.414062 196.527344 155.386719 196.230469 155.386719 195.929688 L 155.386719 162.058594 C 155.386719 161.761719 155.414062 161.464844 155.472656 161.171875 C 155.53125 160.875 155.617188 160.589844 155.734375 160.316406 C 155.847656 160.039062 155.988281 159.773438 156.15625 159.527344 C 156.320312 159.277344 156.511719 159.046875 156.722656 158.835938 C 156.933594 158.621094 157.164062 158.433594 157.414062 158.265625 C 157.664062 158.101562 157.925781 157.960938 158.203125 157.847656 C 158.480469 157.730469 158.765625 157.644531 159.0625 157.585938 C 159.355469 157.527344 159.652344 157.5 159.953125 157.5 C 160.25 157.5 160.546875 157.527344 160.84375 157.585938 C 161.136719 157.644531 161.421875 157.730469 161.699219 157.847656 C 161.976562 157.960938 162.238281 158.101562 162.488281 158.265625 C 162.738281 158.433594 162.96875 158.621094 163.179688 158.835938 C 163.390625 159.046875 163.582031 159.277344 163.746094 159.527344 C 163.914062 159.773438 164.054688 160.039062 164.167969 160.316406 C 164.285156 160.589844 164.371094 160.875 164.429688 161.171875 C 164.488281 161.464844 164.515625 161.761719 164.515625 162.058594 L 164.515625 195.945312 C 164.515625 196.246094 164.484375 196.542969 164.425781 196.835938 C 164.367188 197.128906 164.28125 197.414062 164.164062 197.6875 C 164.050781 197.964844 163.910156 198.226562 163.742188 198.476562 C 163.578125 198.722656 163.386719 198.953125 163.175781 199.164062 C 162.964844 199.375 162.734375 199.5625 162.484375 199.730469 C 162.234375 199.894531 161.972656 200.035156 161.695312 200.148438 C 161.417969 200.265625 161.132812 200.351562 160.839844 200.410156 C 160.546875 200.46875 160.25 200.496094 159.953125 200.496094 Z M 159.953125 200.496094 " fill-opacity="1" fill-rule="nonzero"/><path fill="#fcbe00" d="M 235.269531 315.074219 L 126.582031 328.910156 C 126.28125 328.949219 125.984375 328.957031 125.6875 328.9375 C 125.386719 328.917969 125.09375 328.867188 124.804688 328.789062 C 124.515625 328.710938 124.234375 328.601562 123.96875 328.46875 C 123.699219 328.335938 123.445312 328.175781 123.210938 327.992188 C 122.972656 327.8125 122.753906 327.605469 122.558594 327.378906 C 122.363281 327.152344 122.1875 326.910156 122.039062 326.652344 C 121.890625 326.390625 121.769531 326.117188 121.675781 325.835938 C 121.578125 325.550781 121.511719 325.261719 121.476562 324.960938 C 121.359375 324.070312 121.160156 323.199219 120.875 322.347656 C 120.585938 321.496094 120.21875 320.679688 119.773438 319.902344 C 119.324219 319.121094 118.808594 318.394531 118.21875 317.714844 C 117.625 317.039062 116.976562 316.421875 116.265625 315.875 C 115.554688 315.324219 114.792969 314.847656 113.988281 314.449219 C 113.183594 314.046875 112.347656 313.730469 111.480469 313.492188 C 110.613281 313.257812 109.730469 313.105469 108.835938 313.042969 C 107.9375 312.980469 107.042969 313.007812 106.152344 313.121094 C 105.851562 313.15625 105.554688 313.164062 105.253906 313.144531 C 104.957031 313.125 104.664062 313.074219 104.375 312.996094 C 104.085938 312.917969 103.804688 312.808594 103.539062 312.675781 C 103.269531 312.542969 103.015625 312.386719 102.777344 312.203125 C 102.542969 312.019531 102.324219 311.8125 102.128906 311.585938 C 101.933594 311.359375 101.757812 311.117188 101.609375 310.859375 C 101.460938 310.597656 101.339844 310.324219 101.246094 310.042969 C 101.148438 309.757812 101.082031 309.46875 101.046875 309.171875 L 73.410156 92.429688 C 73.367188 92.132812 73.355469 91.832031 73.371094 91.527344 C 73.390625 91.226562 73.4375 90.929688 73.511719 90.636719 C 73.589844 90.34375 73.695312 90.0625 73.828125 89.789062 C 73.960938 89.519531 74.117188 89.261719 74.300781 89.023438 C 74.484375 88.78125 74.691406 88.5625 74.917969 88.363281 C 75.148438 88.164062 75.390625 87.988281 75.652344 87.839844 C 75.917969 87.6875 76.191406 87.566406 76.476562 87.46875 C 76.765625 87.371094 77.058594 87.304688 77.359375 87.269531 C 77.660156 87.230469 77.960938 87.222656 78.261719 87.246094 C 78.5625 87.265625 78.859375 87.316406 79.152344 87.398438 C 79.441406 87.480469 79.722656 87.589844 79.992188 87.726562 C 80.261719 87.863281 80.515625 88.023438 80.753906 88.210938 C 80.992188 88.398438 81.207031 88.605469 81.40625 88.835938 C 81.601562 89.066406 81.773438 89.3125 81.917969 89.578125 C 82.066406 89.84375 82.1875 90.121094 82.277344 90.40625 C 82.371094 90.695312 82.433594 90.988281 82.464844 91.289062 L 109.585938 303.957031 C 110.695312 304.042969 111.792969 304.207031 112.878906 304.453125 C 113.964844 304.695312 115.027344 305.019531 116.066406 305.417969 C 117.101562 305.820312 118.105469 306.292969 119.078125 306.835938 C 120.046875 307.382812 120.972656 307.996094 121.851562 308.675781 C 122.730469 309.359375 123.558594 310.097656 124.328125 310.898438 C 125.101562 311.699219 125.8125 312.554688 126.457031 313.457031 C 127.105469 314.363281 127.683594 315.308594 128.195312 316.296875 C 128.703125 317.285156 129.140625 318.304688 129.5 319.355469 L 230.039062 306.550781 C 230.125 305.441406 230.292969 304.347656 230.535156 303.261719 C 230.78125 302.175781 231.105469 301.117188 231.503906 300.078125 C 231.90625 299.039062 232.378906 298.039062 232.925781 297.070312 C 233.472656 296.101562 234.085938 295.175781 234.765625 294.296875 C 235.449219 293.417969 236.1875 292.59375 236.992188 291.820312 C 237.792969 291.050781 238.644531 290.339844 239.550781 289.695312 C 240.453125 289.046875 241.402344 288.46875 242.390625 287.960938 C 243.378906 287.453125 244.402344 287.015625 245.453125 286.65625 L 218.328125 73.960938 C 218.292969 73.664062 218.28125 73.367188 218.304688 73.066406 C 218.324219 72.769531 218.375 72.476562 218.453125 72.1875 C 218.53125 71.898438 218.636719 71.617188 218.769531 71.351562 C 218.90625 71.082031 219.0625 70.828125 219.246094 70.59375 C 219.429688 70.355469 219.636719 70.140625 219.859375 69.941406 C 220.085938 69.746094 220.332031 69.574219 220.589844 69.425781 C 220.851562 69.277344 221.125 69.152344 221.40625 69.058594 C 221.691406 68.964844 221.980469 68.894531 222.28125 68.859375 C 222.578125 68.820312 222.875 68.8125 223.175781 68.832031 C 223.472656 68.851562 223.769531 68.902344 224.058594 68.980469 C 224.347656 69.058594 224.625 69.167969 224.894531 69.300781 C 225.160156 69.433594 225.414062 69.589844 225.652344 69.773438 C 225.890625 69.957031 226.105469 70.164062 226.300781 70.390625 C 226.5 70.613281 226.671875 70.859375 226.820312 71.117188 C 226.96875 71.378906 227.09375 71.648438 227.1875 71.933594 C 227.28125 72.21875 227.347656 72.507812 227.386719 72.804688 L 255.027344 289.554688 C 255.066406 289.851562 255.074219 290.148438 255.054688 290.449219 C 255.035156 290.746094 254.984375 291.039062 254.90625 291.328125 C 254.828125 291.617188 254.71875 291.898438 254.585938 292.164062 C 254.453125 292.433594 254.292969 292.6875 254.109375 292.921875 C 253.925781 293.160156 253.722656 293.375 253.496094 293.574219 C 253.269531 293.769531 253.027344 293.941406 252.765625 294.089844 C 252.503906 294.238281 252.234375 294.363281 251.949219 294.457031 C 251.664062 294.550781 251.375 294.617188 251.074219 294.65625 C 250.183594 294.769531 249.3125 294.96875 248.460938 295.257812 C 247.605469 295.542969 246.789062 295.910156 246.011719 296.355469 C 245.230469 296.800781 244.5 297.320312 243.824219 297.910156 C 243.144531 298.5 242.53125 299.152344 241.980469 299.863281 C 241.429688 300.574219 240.953125 301.332031 240.554688 302.132812 C 240.152344 302.9375 239.832031 303.773438 239.597656 304.640625 C 239.359375 305.507812 239.210938 306.390625 239.148438 307.285156 C 239.085938 308.183594 239.109375 309.078125 239.222656 309.96875 C 239.261719 310.265625 239.269531 310.5625 239.25 310.863281 C 239.230469 311.160156 239.179688 311.457031 239.101562 311.746094 C 239.023438 312.035156 238.914062 312.3125 238.78125 312.582031 C 238.648438 312.851562 238.488281 313.101562 238.304688 313.339844 C 238.121094 313.578125 237.917969 313.792969 237.691406 313.988281 C 237.464844 314.1875 237.222656 314.359375 236.960938 314.507812 C 236.699219 314.65625 236.429688 314.777344 236.144531 314.875 C 235.859375 314.96875 235.570312 315.035156 235.269531 315.074219 Z M 235.269531 315.074219 " fill-opacity="1" fill-rule="nonzero"/><path fill="#ffed9f" d="M 230.039062 306.539062 L 130.027344 319.28125 C 130.160156 319.617188 130.335938 319.929688 130.433594 320.277344 L 230.976562 307.472656 C 231.0625 306.363281 231.226562 305.269531 231.472656 304.183594 C 231.714844 303.101562 232.039062 302.039062 232.4375 301 C 232.839844 299.964844 233.3125 298.960938 233.859375 297.992188 C 234.40625 297.023438 235.019531 296.097656 235.699219 295.21875 C 236.378906 294.339844 237.121094 293.515625 237.921875 292.746094 C 238.722656 291.972656 239.578125 291.265625 240.480469 290.617188 C 241.386719 289.96875 242.332031 289.390625 243.324219 288.882812 C 244.3125 288.375 245.332031 287.9375 246.386719 287.578125 L 219.265625 74.90625 C 219.207031 74.46875 219.210938 74.03125 219.277344 73.59375 C 219.347656 73.15625 219.476562 72.738281 219.667969 72.339844 C 219.859375 71.941406 220.101562 71.582031 220.398438 71.253906 C 220.695312 70.925781 221.035156 70.648438 221.414062 70.421875 C 221.789062 70.191406 222.195312 70.023438 222.621094 69.914062 C 223.050781 69.804688 223.484375 69.757812 223.925781 69.773438 C 224.367188 69.792969 224.796875 69.875 225.21875 70.015625 C 225.636719 70.160156 226.023438 70.359375 226.382812 70.617188 C 225.902344 69.984375 225.296875 69.511719 224.5625 69.199219 C 223.832031 68.890625 223.070312 68.777344 222.28125 68.867188 C 221.984375 68.90625 221.695312 68.972656 221.410156 69.070312 C 221.125 69.164062 220.851562 69.285156 220.59375 69.433594 C 220.332031 69.582031 220.089844 69.757812 219.863281 69.953125 C 219.636719 70.148438 219.429688 70.367188 219.246094 70.605469 C 219.066406 70.839844 218.90625 71.09375 218.773438 71.363281 C 218.636719 71.628906 218.53125 71.910156 218.453125 72.199219 C 218.375 72.488281 218.324219 72.78125 218.304688 73.078125 C 218.28125 73.378906 218.292969 73.675781 218.328125 73.972656 L 245.453125 286.644531 C 244.402344 287.003906 243.378906 287.4375 242.390625 287.949219 C 241.402344 288.457031 240.453125 289.035156 239.550781 289.683594 C 238.644531 290.328125 237.792969 291.039062 236.992188 291.808594 C 236.1875 292.582031 235.449219 293.40625 234.765625 294.285156 C 234.085938 295.164062 233.472656 296.089844 232.925781 297.058594 C 232.378906 298.027344 231.90625 299.027344 231.503906 300.066406 C 231.105469 301.105469 230.78125 302.164062 230.535156 303.25 C 230.292969 304.332031 230.125 305.429688 230.039062 306.539062 Z M 230.039062 306.539062 " fill-opacity="1" fill-rule="nonzero"/><path fill="#ffed9f" d="M 110.523438 304.867188 C 113.175781 305.074219 115.710938 305.726562 118.136719 306.820312 C 120.558594 307.914062 122.726562 309.386719 124.636719 311.238281 C 122.773438 309.226562 120.621094 307.605469 118.171875 306.371094 C 115.726562 305.136719 113.140625 304.367188 110.417969 304.058594 Z M 110.523438 304.867188 " fill-opacity="1" fill-rule="nonzero"/><path fill="#ffed9f" d="M 122.390625 325.898438 C 122.1875 324.359375 121.738281 322.898438 121.035156 321.515625 C 120.332031 320.132812 119.417969 318.90625 118.292969 317.839844 C 120.054688 319.894531 121.109375 322.265625 121.457031 324.949219 C 121.542969 325.585938 121.753906 326.179688 122.089844 326.726562 C 122.429688 327.273438 122.867188 327.726562 123.398438 328.085938 C 122.855469 327.453125 122.519531 326.722656 122.390625 325.898438 Z M 122.390625 325.898438 " fill-opacity="1" fill-rule="nonzero"/><path fill="#ffed9f" d="M 101.984375 310.105469 L 74.34375 93.367188 C 74.285156 92.925781 74.289062 92.492188 74.355469 92.054688 C 74.425781 91.617188 74.554688 91.199219 74.746094 90.800781 C 74.9375 90.402344 75.179688 90.039062 75.476562 89.714844 C 75.773438 89.386719 76.113281 89.109375 76.492188 88.882812 C 76.871094 88.652344 77.273438 88.484375 77.703125 88.375 C 78.128906 88.265625 78.5625 88.21875 79.007812 88.234375 C 79.449219 88.253906 79.878906 88.332031 80.296875 88.476562 C 80.714844 88.621094 81.101562 88.820312 81.460938 89.078125 C 80.980469 88.445312 80.375 87.972656 79.644531 87.660156 C 78.910156 87.347656 78.152344 87.238281 77.359375 87.328125 C 77.0625 87.367188 76.773438 87.433594 76.488281 87.527344 C 76.203125 87.625 75.929688 87.746094 75.671875 87.894531 C 75.410156 88.042969 75.167969 88.214844 74.941406 88.410156 C 74.714844 88.609375 74.511719 88.824219 74.328125 89.0625 C 74.144531 89.296875 73.984375 89.550781 73.851562 89.820312 C 73.71875 90.085938 73.609375 90.367188 73.53125 90.65625 C 73.453125 90.945312 73.402344 91.238281 73.382812 91.535156 C 73.363281 91.835938 73.371094 92.132812 73.410156 92.429688 L 101.050781 309.171875 C 101.132812 309.808594 101.347656 310.398438 101.683594 310.945312 C 102.023438 311.492188 102.457031 311.945312 102.988281 312.304688 C 102.445312 311.667969 102.109375 310.933594 101.984375 310.105469 Z M 101.984375 310.105469 " fill-opacity="1" fill-rule="nonzero"/><path fill="#ea6142" d="M 241.472656 33.75 C 241.796875 36.289062 242.019531 38.832031 242.140625 41.390625 C 242.261719 43.945312 242.28125 46.5 242.195312 49.058594 C 242.113281 51.617188 241.929688 54.164062 241.644531 56.707031 C 241.359375 59.25 240.972656 61.777344 240.484375 64.289062 C 240 66.800781 239.414062 69.289062 238.726562 71.753906 C 238.042969 74.21875 237.261719 76.652344 236.382812 79.054688 C 235.503906 81.460938 234.53125 83.824219 233.464844 86.148438 C 232.398438 88.476562 231.242188 90.753906 229.992188 92.988281 C 228.742188 95.222656 227.410156 97.402344 225.988281 99.53125 C 224.566406 101.660156 223.0625 103.726562 221.472656 105.734375 C 219.886719 107.742188 218.222656 109.683594 216.484375 111.558594 C 214.742188 113.4375 212.929688 115.238281 211.042969 116.972656 C 209.160156 118.703125 207.210938 120.355469 205.195312 121.933594 C 203.175781 123.511719 201.101562 125.003906 198.964844 126.417969 C 196.832031 127.828125 194.644531 129.152344 192.402344 130.390625 C 190.160156 131.628906 187.875 132.777344 185.542969 133.832031 L 129.246094 141.003906 C 126.722656 140.566406 124.222656 140.03125 121.742188 139.394531 C 119.261719 138.757812 116.808594 138.023438 114.386719 137.191406 C 111.964844 136.359375 109.582031 135.433594 107.234375 134.414062 C 104.886719 133.394531 102.582031 132.28125 100.324219 131.078125 C 98.0625 129.871094 95.855469 128.582031 93.699219 127.203125 C 91.542969 125.820312 89.441406 124.359375 87.402344 122.8125 C 85.363281 121.265625 83.386719 119.640625 81.476562 117.9375 C 79.566406 116.234375 77.726562 114.457031 75.957031 112.609375 C 74.1875 110.757812 72.492188 108.84375 70.878906 106.859375 C 69.261719 104.875 67.726562 102.828125 66.269531 100.722656 C 64.816406 98.617188 63.449219 96.457031 62.167969 94.242188 C 60.886719 92.027344 59.695312 89.761719 58.589844 87.453125 C 57.488281 85.144531 56.480469 82.792969 55.566406 80.402344 C 54.652344 78.015625 53.832031 75.589844 53.113281 73.136719 C 52.390625 70.679688 51.765625 68.203125 51.242188 65.699219 C 50.71875 63.191406 50.292969 60.671875 49.96875 58.132812 Z M 241.472656 33.75 " fill-opacity="1" fill-rule="nonzero"/><path fill="#e04b32" d="M 157.984375 115.988281 C 156.429688 116.1875 154.90625 116.511719 153.40625 116.957031 C 151.90625 117.40625 150.457031 117.972656 149.050781 118.660156 C 147.644531 119.34375 146.300781 120.140625 145.027344 121.042969 C 143.75 121.949219 142.554688 122.953125 141.445312 124.050781 C 140.332031 125.152344 139.316406 126.335938 138.398438 127.601562 C 137.480469 128.867188 136.671875 130.199219 135.972656 131.597656 C 135.273438 132.996094 134.691406 134.441406 134.226562 135.933594 C 133.761719 137.425781 133.425781 138.949219 133.210938 140.496094 L 185.542969 133.832031 C 186.308594 133.484375 187.039062 133.070312 187.792969 132.703125 C 187.167969 131.308594 186.4375 129.972656 185.597656 128.695312 C 184.757812 127.421875 183.820312 126.21875 182.789062 125.089844 C 181.757812 123.960938 180.644531 122.921875 179.445312 121.972656 C 178.25 121.023438 176.984375 120.175781 175.652344 119.429688 C 174.316406 118.679688 172.933594 118.042969 171.496094 117.515625 C 170.0625 116.988281 168.59375 116.582031 167.09375 116.289062 C 165.59375 115.996094 164.078125 115.824219 162.550781 115.773438 C 161.023438 115.722656 159.5 115.796875 157.984375 115.988281 Z M 157.984375 115.988281 " fill-opacity="1" fill-rule="nonzero"/><path fill="#fcbe00" d="M 172.996094 201.160156 C 172.996094 202.015625 172.914062 202.863281 172.746094 203.703125 C 172.578125 204.542969 172.332031 205.359375 172.003906 206.148438 C 171.675781 206.941406 171.273438 207.691406 170.796875 208.402344 C 170.324219 209.113281 169.78125 209.773438 169.175781 210.378906 C 168.570312 210.984375 167.910156 211.523438 167.199219 212 C 166.488281 212.476562 165.734375 212.878906 164.945312 213.203125 C 164.152344 213.53125 163.335938 213.78125 162.496094 213.945312 C 161.65625 214.113281 160.808594 214.195312 159.953125 214.195312 C 159.09375 214.195312 158.246094 214.113281 157.40625 213.945312 C 156.566406 213.78125 155.75 213.53125 154.957031 213.203125 C 154.167969 212.878906 153.414062 212.476562 152.703125 212 C 151.992188 211.523438 151.332031 210.984375 150.726562 210.378906 C 150.121094 209.773438 149.578125 209.113281 149.105469 208.402344 C 148.628906 207.691406 148.226562 206.941406 147.898438 206.148438 C 147.570312 205.359375 147.324219 204.542969 147.15625 203.703125 C 146.988281 202.863281 146.90625 202.015625 146.90625 201.160156 C 146.90625 200.304688 146.988281 199.457031 147.15625 198.617188 C 147.324219 197.777344 147.570312 196.964844 147.898438 196.171875 C 148.226562 195.382812 148.628906 194.628906 149.105469 193.917969 C 149.578125 193.207031 150.121094 192.546875 150.726562 191.941406 C 151.332031 191.335938 151.992188 190.796875 152.703125 190.320312 C 153.414062 189.847656 154.167969 189.445312 154.957031 189.117188 C 155.75 188.789062 156.566406 188.542969 157.40625 188.375 C 158.246094 188.207031 159.09375 188.125 159.953125 188.125 C 160.808594 188.125 161.65625 188.207031 162.496094 188.375 C 163.335938 188.542969 164.152344 188.789062 164.945312 189.117188 C 165.734375 189.445312 166.488281 189.847656 167.199219 190.320312 C 167.910156 190.796875 168.570312 191.335938 169.175781 191.941406 C 169.78125 192.546875 170.324219 193.207031 170.796875 193.917969 C 171.273438 194.628906 171.675781 195.382812 172.003906 196.171875 C 172.332031 196.964844 172.578125 197.777344 172.746094 198.617188 C 172.914062 199.457031 172.996094 200.304688 172.996094 201.160156 Z M 172.996094 201.160156 " fill-opacity="1" fill-rule="nonzero"/><path fill="#ffd92e" d="M 158.558594 193.820312 C 158.796875 193.957031 159.011719 194.121094 159.207031 194.3125 C 159.40625 194.5 159.578125 194.714844 159.730469 194.953125 C 159.882812 195.191406 160.007812 195.449219 160.109375 195.726562 C 160.207031 196.003906 160.28125 196.292969 160.328125 196.601562 C 160.371094 196.90625 160.390625 197.21875 160.378906 197.539062 C 160.367188 197.859375 160.328125 198.183594 160.257812 198.507812 C 160.191406 198.832031 160.09375 199.152344 159.972656 199.46875 C 159.851562 199.785156 159.707031 200.089844 159.535156 200.386719 C 159.363281 200.683594 159.171875 200.960938 158.960938 201.226562 C 158.746094 201.488281 158.515625 201.730469 158.269531 201.953125 C 158.019531 202.175781 157.761719 202.371094 157.488281 202.539062 C 157.214844 202.710938 156.933594 202.851562 156.648438 202.964844 C 156.363281 203.078125 156.074219 203.160156 155.78125 203.214844 C 155.492188 203.265625 155.207031 203.285156 154.925781 203.273438 C 154.640625 203.261719 154.371094 203.21875 154.105469 203.140625 C 153.84375 203.066406 153.59375 202.960938 153.359375 202.824219 C 153.125 202.691406 152.90625 202.527344 152.710938 202.335938 C 152.511719 202.144531 152.339844 201.933594 152.1875 201.695312 C 152.035156 201.457031 151.910156 201.199219 151.808594 200.921875 C 151.710938 200.644531 151.636719 200.351562 151.589844 200.046875 C 151.546875 199.742188 151.527344 199.429688 151.539062 199.109375 C 151.550781 198.789062 151.589844 198.464844 151.660156 198.140625 C 151.726562 197.816406 151.820312 197.496094 151.945312 197.179688 C 152.066406 196.863281 152.210938 196.554688 152.382812 196.261719 C 152.554688 195.964844 152.746094 195.6875 152.957031 195.421875 C 153.171875 195.160156 153.402344 194.917969 153.648438 194.695312 C 153.898438 194.472656 154.15625 194.277344 154.429688 194.105469 C 154.703125 193.9375 154.984375 193.796875 155.269531 193.683594 C 155.554688 193.570312 155.84375 193.484375 156.136719 193.433594 C 156.425781 193.382812 156.710938 193.363281 156.992188 193.375 C 157.277344 193.386719 157.546875 193.429688 157.8125 193.507812 C 158.074219 193.582031 158.324219 193.6875 158.558594 193.820312 Z M 158.558594 193.820312 " fill-opacity="1" fill-rule="nonzero"/><path fill="#ffd92e" d="M 186.621094 141.621094 C 186.621094 142.5625 186.574219 143.496094 186.480469 144.433594 C 186.390625 145.367188 186.253906 146.292969 186.070312 147.214844 C 185.886719 148.136719 185.65625 149.046875 185.382812 149.945312 C 185.113281 150.84375 184.796875 151.726562 184.4375 152.59375 C 184.074219 153.460938 183.675781 154.3125 183.230469 155.140625 C 182.789062 155.96875 182.304688 156.773438 181.785156 157.554688 C 181.261719 158.332031 180.703125 159.085938 180.105469 159.8125 C 179.511719 160.539062 178.878906 161.234375 178.214844 161.898438 C 177.550781 162.5625 176.855469 163.191406 176.128906 163.789062 C 175.402344 164.382812 174.648438 164.941406 173.867188 165.464844 C 173.085938 165.984375 172.28125 166.46875 171.449219 166.910156 C 170.621094 167.355469 169.773438 167.753906 168.90625 168.113281 C 168.035156 168.472656 167.152344 168.789062 166.253906 169.0625 C 165.355469 169.335938 164.441406 169.5625 163.519531 169.746094 C 162.601562 169.929688 161.671875 170.066406 160.734375 170.160156 C 159.800781 170.25 158.863281 170.296875 157.921875 170.296875 C 156.984375 170.296875 156.046875 170.25 155.109375 170.160156 C 154.175781 170.066406 153.246094 169.929688 152.324219 169.746094 C 151.402344 169.5625 150.492188 169.335938 149.59375 169.0625 C 148.691406 168.789062 147.808594 168.472656 146.941406 168.113281 C 146.074219 167.753906 145.222656 167.355469 144.394531 166.910156 C 143.566406 166.46875 142.761719 165.984375 141.980469 165.464844 C 141.199219 164.941406 140.445312 164.382812 139.71875 163.789062 C 138.992188 163.191406 138.296875 162.5625 137.632812 161.898438 C 136.964844 161.234375 136.335938 160.539062 135.738281 159.8125 C 135.144531 159.085938 134.585938 158.332031 134.0625 157.554688 C 133.539062 156.773438 133.058594 155.96875 132.613281 155.140625 C 132.171875 154.3125 131.769531 153.460938 131.410156 152.59375 C 131.050781 151.726562 130.734375 150.84375 130.460938 149.945312 C 130.1875 149.046875 129.960938 148.136719 129.777344 147.214844 C 129.59375 146.292969 129.457031 145.367188 129.363281 144.433594 C 129.273438 143.496094 129.226562 142.5625 129.226562 141.621094 C 129.226562 140.683594 129.273438 139.746094 129.363281 138.8125 C 129.457031 137.875 129.59375 136.949219 129.777344 136.027344 C 129.960938 135.105469 130.1875 134.195312 130.460938 133.296875 C 130.734375 132.398438 131.050781 131.515625 131.410156 130.648438 C 131.769531 129.78125 132.171875 128.933594 132.613281 128.105469 C 133.058594 127.277344 133.539062 126.472656 134.0625 125.691406 C 134.585938 124.910156 135.144531 124.15625 135.738281 123.429688 C 136.335938 122.703125 136.964844 122.007812 137.632812 121.34375 C 138.296875 120.679688 138.992188 120.050781 139.71875 119.453125 C 140.445312 118.859375 141.199219 118.300781 141.980469 117.777344 C 142.761719 117.257812 143.566406 116.773438 144.394531 116.332031 C 145.222656 115.890625 146.074219 115.488281 146.941406 115.128906 C 147.808594 114.769531 148.691406 114.453125 149.59375 114.179688 C 150.492188 113.90625 151.402344 113.679688 152.324219 113.496094 C 153.246094 113.3125 154.175781 113.175781 155.109375 113.082031 C 156.046875 112.992188 156.984375 112.945312 157.921875 112.945312 C 158.863281 112.945312 159.800781 112.992188 160.734375 113.082031 C 161.671875 113.175781 162.601562 113.3125 163.519531 113.496094 C 164.441406 113.679688 165.355469 113.90625 166.253906 114.179688 C 167.152344 114.453125 168.035156 114.769531 168.90625 115.128906 C 169.773438 115.488281 170.621094 115.890625 171.449219 116.332031 C 172.28125 116.773438 173.085938 117.257812 173.867188 117.777344 C 174.648438 118.300781 175.402344 118.859375 176.128906 119.453125 C 176.855469 120.050781 177.550781 120.679688 178.214844 121.34375 C 178.878906 122.007812 179.511719 122.703125 180.105469 123.429688 C 180.703125 124.15625 181.261719 124.910156 181.785156 125.691406 C 182.304688 126.472656 182.789062 127.277344 183.230469 128.105469 C 183.675781 128.933594 184.074219 129.78125 184.4375 130.648438 C 184.796875 131.515625 185.113281 132.398438 185.382812 133.296875 C 185.65625 134.195312 185.886719 135.105469 186.070312 136.027344 C 186.253906 136.949219 186.390625 137.875 186.480469 138.8125 C 186.574219 139.746094 186.621094 140.683594 186.621094 141.621094 Z M 186.621094 141.621094 " fill-opacity="1" fill-rule="nonzero"/><path fill="#ffed9f" d="M 176.472656 141.621094 C 176.472656 142.230469 176.445312 142.835938 176.382812 143.4375 C 176.324219 144.042969 176.234375 144.640625 176.117188 145.238281 C 176 145.832031 175.851562 146.421875 175.675781 147.003906 C 175.5 147.582031 175.292969 148.15625 175.0625 148.714844 C 174.828125 149.277344 174.570312 149.824219 174.28125 150.359375 C 173.996094 150.894531 173.683594 151.414062 173.347656 151.921875 C 173.007812 152.425781 172.648438 152.910156 172.261719 153.382812 C 171.878906 153.851562 171.46875 154.300781 171.039062 154.730469 C 170.609375 155.160156 170.160156 155.566406 169.691406 155.949219 C 169.222656 156.335938 168.734375 156.695312 168.230469 157.035156 C 167.722656 157.371094 167.203125 157.683594 166.667969 157.96875 C 166.132812 158.253906 165.582031 158.515625 165.023438 158.746094 C 164.460938 158.980469 163.890625 159.183594 163.308594 159.359375 C 162.726562 159.535156 162.136719 159.683594 161.542969 159.800781 C 160.945312 159.921875 160.347656 160.007812 159.742188 160.070312 C 159.136719 160.128906 158.53125 160.160156 157.921875 160.160156 C 157.316406 160.160156 156.710938 160.128906 156.105469 160.070312 C 155.5 160.007812 154.898438 159.921875 154.304688 159.800781 C 153.707031 159.683594 153.121094 159.535156 152.539062 159.359375 C 151.957031 159.183594 151.386719 158.980469 150.824219 158.746094 C 150.261719 158.515625 149.714844 158.253906 149.179688 157.96875 C 148.640625 157.683594 148.121094 157.371094 147.617188 157.035156 C 147.113281 156.695312 146.625 156.335938 146.15625 155.949219 C 145.683594 155.566406 145.234375 155.160156 144.804688 154.730469 C 144.375 154.300781 143.96875 153.851562 143.582031 153.382812 C 143.199219 152.910156 142.835938 152.425781 142.5 151.921875 C 142.160156 151.414062 141.847656 150.894531 141.5625 150.359375 C 141.277344 149.824219 141.015625 149.277344 140.785156 148.714844 C 140.550781 148.15625 140.347656 147.582031 140.171875 147.003906 C 139.996094 146.421875 139.847656 145.832031 139.730469 145.238281 C 139.609375 144.640625 139.519531 144.042969 139.460938 143.4375 C 139.402344 142.835938 139.371094 142.230469 139.371094 141.621094 C 139.371094 141.015625 139.402344 140.410156 139.460938 139.804688 C 139.519531 139.199219 139.609375 138.601562 139.730469 138.003906 C 139.847656 137.410156 139.996094 136.820312 140.171875 136.242188 C 140.347656 135.660156 140.550781 135.089844 140.785156 134.527344 C 141.015625 133.96875 141.277344 133.417969 141.5625 132.882812 C 141.847656 132.347656 142.160156 131.828125 142.5 131.324219 C 142.835938 130.816406 143.199219 130.332031 143.582031 129.863281 C 143.96875 129.394531 144.375 128.941406 144.804688 128.515625 C 145.234375 128.085938 145.683594 127.675781 146.15625 127.292969 C 146.625 126.90625 147.113281 126.546875 147.617188 126.207031 C 148.121094 125.871094 148.640625 125.558594 149.179688 125.273438 C 149.714844 124.988281 150.261719 124.726562 150.824219 124.496094 C 151.386719 124.261719 151.957031 124.058594 152.539062 123.882812 C 153.121094 123.707031 153.707031 123.558594 154.304688 123.441406 C 154.898438 123.324219 155.5 123.234375 156.105469 123.175781 C 156.710938 123.113281 157.316406 123.085938 157.921875 123.085938 C 158.53125 123.085938 159.136719 123.113281 159.742188 123.175781 C 160.347656 123.234375 160.945312 123.324219 161.542969 123.441406 C 162.136719 123.558594 162.726562 123.707031 163.308594 123.882812 C 163.890625 124.058594 164.460938 124.261719 165.023438 124.496094 C 165.582031 124.726562 166.132812 124.988281 166.667969 125.273438 C 167.203125 125.558594 167.722656 125.871094 168.230469 126.207031 C 168.734375 126.546875 169.222656 126.90625 169.691406 127.292969 C 170.160156 127.675781 170.609375 128.085938 171.039062 128.515625 C 171.46875 128.941406 171.878906 129.390625 172.261719 129.863281 C 172.648438 130.332031 173.007812 130.816406 173.347656 131.324219 C 173.683594 131.828125 173.996094 132.347656 174.28125 132.882812 C 174.570312 133.417969 174.828125 133.96875 175.0625 134.527344 C 175.292969 135.089844 175.5 135.660156 175.675781 136.242188 C 175.851562 136.820312 176 137.410156 176.117188 138.003906 C 176.234375 138.601562 176.324219 139.199219 176.382812 139.804688 C 176.445312 140.410156 176.472656 141.015625 176.472656 141.621094 Z M 176.472656 141.621094 " fill-opacity="1" fill-rule="nonzero"/><path fill="#ffd92e" d="M 173.382812 141.621094 C 173.382812 142.636719 173.285156 143.640625 173.085938 144.636719 C 172.890625 145.628906 172.597656 146.597656 172.207031 147.535156 C 171.820312 148.472656 171.34375 149.363281 170.777344 150.203125 C 170.214844 151.046875 169.574219 151.828125 168.855469 152.546875 C 168.136719 153.261719 167.355469 153.902344 166.511719 154.46875 C 165.667969 155.03125 164.777344 155.507812 163.839844 155.894531 C 162.902344 156.285156 161.933594 156.578125 160.9375 156.773438 C 159.945312 156.972656 158.9375 157.070312 157.921875 157.070312 C 156.90625 157.070312 155.902344 156.972656 154.90625 156.773438 C 153.910156 156.578125 152.945312 156.285156 152.007812 155.894531 C 151.066406 155.507812 150.175781 155.03125 149.332031 154.46875 C 148.488281 153.902344 147.707031 153.261719 146.988281 152.546875 C 146.273438 151.828125 145.632812 151.046875 145.066406 150.203125 C 144.503906 149.363281 144.027344 148.472656 143.636719 147.535156 C 143.25 146.597656 142.957031 145.628906 142.757812 144.636719 C 142.558594 143.640625 142.460938 142.636719 142.460938 141.621094 C 142.460938 140.605469 142.558594 139.601562 142.757812 138.605469 C 142.957031 137.613281 143.25 136.644531 143.636719 135.710938 C 144.027344 134.773438 144.503906 133.882812 145.066406 133.039062 C 145.632812 132.195312 146.273438 131.414062 146.988281 130.695312 C 147.707031 129.980469 148.488281 129.339844 149.332031 128.773438 C 150.175781 128.210938 151.066406 127.734375 152.007812 127.347656 C 152.945312 126.960938 153.910156 126.667969 154.90625 126.46875 C 155.902344 126.269531 156.90625 126.171875 157.921875 126.171875 C 158.9375 126.171875 159.945312 126.269531 160.9375 126.46875 C 161.933594 126.667969 162.902344 126.960938 163.839844 127.347656 C 164.777344 127.734375 165.667969 128.210938 166.511719 128.773438 C 167.355469 129.339844 168.136719 129.980469 168.855469 130.695312 C 169.574219 131.414062 170.214844 132.195312 170.777344 133.039062 C 171.34375 133.882812 171.820312 134.773438 172.207031 135.710938 C 172.597656 136.644531 172.890625 137.613281 173.085938 138.605469 C 173.285156 139.601562 173.382812 140.605469 173.382812 141.621094 Z M 173.382812 141.621094 " fill-opacity="1" fill-rule="nonzero"/><path fill="#ffed9f" d="M 154.523438 251.980469 C 154.179688 251.980469 153.84375 251.945312 153.507812 251.878906 C 153.171875 251.8125 152.847656 251.714844 152.53125 251.582031 C 152.214844 251.453125 151.914062 251.292969 151.632812 251.101562 C 151.347656 250.914062 151.085938 250.699219 150.84375 250.457031 C 150.601562 250.214844 150.386719 249.953125 150.195312 249.667969 C 150.007812 249.382812 149.847656 249.082031 149.714844 248.769531 C 149.585938 248.453125 149.488281 248.128906 149.421875 247.792969 C 149.355469 247.457031 149.320312 247.121094 149.320312 246.777344 L 149.320312 240.433594 C 149.320312 240.09375 149.355469 239.757812 149.421875 239.421875 C 149.488281 239.085938 149.589844 238.761719 149.71875 238.449219 C 149.851562 238.132812 150.011719 237.835938 150.203125 237.550781 C 150.390625 237.269531 150.605469 237.007812 150.847656 236.765625 C 151.089844 236.523438 151.351562 236.308594 151.636719 236.121094 C 151.921875 235.929688 152.21875 235.773438 152.535156 235.640625 C 152.851562 235.511719 153.175781 235.414062 153.507812 235.347656 C 153.84375 235.28125 154.183594 235.246094 154.523438 235.246094 C 154.863281 235.246094 155.203125 235.28125 155.535156 235.347656 C 155.871094 235.414062 156.195312 235.511719 156.511719 235.640625 C 156.828125 235.773438 157.125 235.929688 157.410156 236.121094 C 157.695312 236.308594 157.957031 236.523438 158.199219 236.765625 C 158.441406 237.007812 158.65625 237.269531 158.84375 237.550781 C 159.035156 237.835938 159.195312 238.132812 159.328125 238.449219 C 159.457031 238.761719 159.558594 239.085938 159.625 239.421875 C 159.691406 239.757812 159.726562 240.09375 159.726562 240.433594 L 159.726562 246.777344 C 159.726562 247.121094 159.691406 247.457031 159.625 247.792969 C 159.558594 248.128906 159.460938 248.453125 159.332031 248.769531 C 159.199219 249.082031 159.039062 249.382812 158.851562 249.667969 C 158.660156 249.953125 158.445312 250.214844 158.203125 250.457031 C 157.960938 250.699219 157.699219 250.914062 157.414062 251.101562 C 157.128906 251.292969 156.832031 251.453125 156.515625 251.582031 C 156.199219 251.714844 155.875 251.8125 155.539062 251.878906 C 155.203125 251.945312 154.863281 251.980469 154.523438 251.980469 Z M 154.523438 251.980469 " fill-opacity="1" fill-rule="nonzero"/><g clip-path="url(#3e4a08a43e)"><path fill="#fcbe00" d="M 275.761719 48.804688 L 272.207031 39.328125 L 262.71875 35.777344 L 272.207031 32.226562 L 275.761719 22.742188 L 279.308594 32.226562 L 288.796875 35.777344 L 279.140625 39.511719 Z M 275.761719 48.804688 " fill-opacity="1" fill-rule="nonzero"/></g><g clip-path="url(#bc7ec97d4b)"><path fill="#fcbe00" d="M 40.789062 331.367188 L 36.28125 319.335938 L 24.246094 314.835938 L 36.28125 310.332031 L 40.789062 298.300781 L 45.296875 310.332031 L 57.332031 314.835938 L 45.078125 319.578125 Z M 40.789062 331.367188 " fill-opacity="1" fill-rule="nonzero"/></g><g clip-path="url(#92f734cf1e)"><path fill="#f77754" d="M 334.285156 95.980469 L 329.894531 84.269531 L 318.171875 79.886719 L 329.894531 75.5 L 334.285156 63.785156 L 338.671875 75.5 L 350.390625 79.886719 L 338.460938 84.503906 Z M 334.285156 95.980469 " fill-opacity="1" fill-rule="nonzero"/></g></svg>